<?xml version="1.0" encoding="UTF-8" standalone="no"?>
<!-- Created with Inkscape (http://www.inkscape.org/) -->

<svg
   version="1.1"
   id="svg1"
   width="377.92001"
   height="626.56"
   viewBox="0 0 377.92001 626.56"
   xmlns="http://www.w3.org/2000/svg"
   xmlnsSvg="http://www.w3.org/2000/svg">
  <defs
     id="defs1" />
  <g
     id="g1">
    <path
       style="fill:#000000"
       d="m 169.91855,626.14628 c -10.37433,-2.93254 -10.53381,-25.48783 -0.20109,-28.4396 5.49807,-1.57064 11.23916,0.72999 13.54643,5.42848 l 0.89612,1.82484 v 6.88673 6.88673 l -1.05117,2.13522 c -2.20535,4.4797 -7.92171,6.76689 -13.19029,5.2776 z m 5.71657,-6.79762 c 2.51743,-2.11827 2.2559,-13.57353 -0.34714,-15.20532 -2.31993,-1.45432 -5.0939,0.0505 -5.53675,3.00363 -1.38501,9.23589 1.73046,15.69657 5.88389,12.20169 z M 20.364191,624.56 c -0.264673,-0.924 -1.936706,-7.008 -3.715628,-13.52 -1.778923,-6.512 -3.3651,-12.236 -3.524838,-12.72 l -0.290432,-0.88 h 3.795489 3.795489 l 1.487911,6.16 c 1.938372,8.02492 2.104868,8.64961 2.263148,8.49134 0.0733,-0.0733 1.00516,-3.00384 2.070808,-6.51231 2.756343,-9.0748 2.166405,-8.13903 5.131122,-8.13903 2.10476,0 2.525525,0.0885 2.663651,0.56 1.76946,6.04067 4.161014,13.73465 4.324898,13.91384 0.117628,0.12861 0.916567,-2.60739 1.77542,-6.08 0.858853,-3.47262 1.689922,-6.78448 1.84682,-7.3597 l 0.285269,-1.04586 7.404892,0.0859 7.404892,0.0859 1.77845,7.0967 c 0.978148,3.90318 1.856231,7.17296 1.951297,7.26618 0.09507,0.0932 1.171163,-3.1363 2.391327,-7.1767 l 2.21848,-7.34618 2.568673,0.004 2.568674,0.004 2.221737,7.35821 c 1.221956,4.04701 2.321533,7.24918 2.443505,7.11594 0.121972,-0.13324 0.987075,-3.44626 1.922451,-7.36226 l 1.700682,-7.12 h 7.440772 7.440771 l 0.308471,1.11719 c 0.16966,0.61446 0.990771,3.93291 1.824691,7.37435 0.833921,3.44144 1.612473,6.1427 1.730115,6.00281 0.19308,-0.2296 1.299018,-3.73874 3.685582,-11.69435 l 0.83995,-2.8 h 2.52688 2.52687 l 1.26883,4.08 c 0.69786,2.244 1.71824,5.556 2.26751,7.36 1.242,4.07921 0.90099,4.53521 3.05118,-4.08 l 1.83692,-7.36 h 3.64154 c 2.43596,0 3.64154,0.11658 3.64154,0.35214 0,0.29831 -5.7795,21.65393 -7.24423,26.76786 l -0.48118,1.68 h -2.95531 -2.95531 l -2.22198,-6.85894 c -1.22209,-3.77241 -2.31504,-6.76041 -2.42877,-6.64 -0.11373,0.12042 -1.16707,3.20694 -2.34074,6.85894 l -2.13396,6.64 h -2.979879 -2.979874 l -0.475429,-1.84 c -1.589286,-6.15086 -7.085797,-25.88082 -7.266754,-26.08434 -0.119489,-0.13438 -1.782099,5.48162 -3.694688,12.48 -1.912589,6.99839 -3.647332,13.30034 -3.854984,14.00434 l -0.37755,1.28 h -2.989494 -2.989493 l -2.178511,-6.69666 c -1.198182,-3.68316 -2.238951,-6.7571 -2.312821,-6.83097 -0.07387,-0.0739 -1.129452,2.93963 -2.345736,6.69666 l -2.211426,6.831 h -2.983884 -2.983885 l -1.645215,-5.92 c -0.904868,-3.256 -2.644096,-9.54975 -3.864951,-13.98611 -1.220855,-4.43635 -2.310853,-7.96435 -2.422219,-7.84 -0.111365,0.12436 -1.904995,6.45411 -3.985845,14.06611 l -3.783364,13.84 h -2.958665 -2.958666 l -2.158913,-6.64 c -1.187402,-3.652 -2.24818,-6.74966 -2.357283,-6.88369 -0.109104,-0.13403 -1.193122,2.85397 -2.40893,6.64 l -2.21056,6.88369 h -2.947043 -2.947044 z m 102.905329,-1.92 0.0905,-3.6 3.6,-0.0905 3.6,-0.0905 v 3.69048 3.69048 h -3.69048 -3.69048 z M 135.68,611.84 v -14.4 h 3.68 3.68001 v 5.6 5.6 h 3.68 3.68 v -5.6 -5.6 h 3.52 3.52 v 14.4 14.4 h -3.52 -3.52 v -5.6 -5.6 h -3.68 -3.68 v 5.6 5.6 H 139.36 135.68 Z m 53.76001,-0.0266 v -14.42661 l 7.14123,0.10661 7.14123,0.10662 1.89877,0.99068 C 215.0092,603.48883 210.73093,616 199.668,616 h -3.18799 v 5.12 5.12 h -3.52 -3.52 z m 12.88088,-2.84832 c 2.76674,-2.17632 0.70408,-5.12506 -3.58499,-5.12506 h -2.25589 v 2.88 2.88 h 2.51684 c 2.02562,0 2.67439,-0.12393 3.32404,-0.63494 z m 12.39912,2.84832 v -14.42661 l 7.12,0.10661 c 9.28616,0.13905 11.91424,1.29925 13.50263,5.96093 C 237.73458,610.47426 233.14538,616 224.92326,616 h -3.16325 v 5.12 5.12 h -3.52 -3.52 z m 13.14461,-3.14877 c 2.32243,-2.32242 0.71488,-4.61022 -3.3569,-4.77744 l -2.74771,-0.11285 v 2.91284 2.91284 h 2.58461 c 2.43002,0 2.64057,-0.056 3.52,-0.93539 z m 12.13539,3.17539 v -14.4 h 9.76 9.76 v 3.2 3.2 h -6.25402 -6.25402 l 0.094,2.32 0.094,2.32 5.36,0.0877 5.36,0.0877 v 3.19226 3.19227 h -5.45346 -5.45346 l 0.0935,2.48 0.0935,2.48 6.16,0.0869 6.16,0.0869 v 3.03309 3.03309 h -9.76 -9.76 z m 24.64,-0.022 v -14.422 l 7.12,0.102 c 6.63308,0.095 7.22942,0.15232 8.72,0.83779 6.04357,2.77926 7.35398,10.57965 2.48227,14.77604 l -1.60126,1.37929 1.03207,1.95444 c 3.15162,5.96826 4.96692,9.48864 4.96692,9.63223 0,0.0892 -1.84366,0.16221 -4.09702,0.16221 h -4.09702 l -2.45366,-5.2 -2.45367,-5.2 -1.28932,-0.0984 -1.28931,-0.0984 v 5.2984 5.2984 h -3.52 -3.52 z m 13.46848,-3.13345 c 1.9951,-2.46466 0.0246,-4.92373 -3.82818,-4.7773 l -2.4403,0.0928 -0.0929,2.83232 -0.0929,2.83232 2.92141,-0.11232 c 2.61256,-0.10045 2.98605,-0.19219 3.53293,-0.86777 z M 290.56001,622.56 v -3.68 h 3.68 3.68 v 3.68 3.68 h -3.68 -3.68 z m 12.48,-10.7255 v -14.44606 l 7.44,0.10578 c 7.25766,0.10319 7.48397,0.1264 9.23423,0.94712 4.68905,2.19877 5.96157,8.40702 2.46395,12.02094 l -0.98939,1.02229 1.05114,0.88448 c 2.86784,2.41312 3.06392,7.88557 0.39431,11.00441 -2.20112,2.57152 -2.70758,2.69329 -11.67424,2.80682 l -7.92,0.10028 z m 13.73678,7.16234 c 1.88356,-2.39456 0.43483,-3.95684 -3.66924,-3.95684 h -3.02754 v 2.4 2.4 h 3.01678 c 2.87792,0 3.0473,-0.0388 3.68,-0.84316 z m -0.47522,-11.00113 c 2.12586,-2.12643 0.42312,-4.15571 -3.48701,-4.15571 h -2.73455 v 2.18666 c 0,2.66213 4.19984,3.99132 6.22156,1.96905 z m 13.29844,3.84429 v -14.4 h 9.76 9.76 v 3.2 3.2 h -6.24 -6.24 v 2.4 2.4 h 5.28 5.28 v 3.2 3.2 h -5.28 -5.28 v 2.56 2.56 h 6.24 6.24 v 3.04 3.04 h -9.76 -9.76 z M 17.920001,568.30905 v -17.93096 l 2.105099,-1.96921 c 4.689718,-4.387 4.697215,-4.43183 4.850934,-29.00635 l 0.12684,-20.27747 1.178563,0.18596 c 30.370113,4.79199 56.330857,-9.15486 64.6857,-34.75102 l 0.705046,-2.16 H 110.42609 129.28 v 19.84 19.84 h -20 -19.999997 v 20.52734 20.52735 l 5.2,-0.19383 C 109.13283,542.39469 111.51854,539.41948 111.91317,521.2 l 0.18541,-8.56 24.83071,0.004 24.83072,0.004 -1.12,0.87645 c -7.66204,5.99589 -16.55315,14.7518 -15.95392,15.71132 0.78532,1.25751 1.52317,0.73598 7.56379,-5.34636 3.29457,-3.31732 7.4809,-7.20532 9.30296,-8.64 l 3.31283,-2.60851 h 2.68717 2.68717 v 36.8 36.8 H 94.080003 17.920001 Z M 126.72,569.88082 c 0,-0.65208 -0.11427,-0.69009 -1.2,-0.39913 -0.85737,0.22977 -0.94077,0.92295 -0.16338,1.358 0.68224,0.38181 1.36338,-0.0973 1.36338,-0.95887 z m 1.58154,-8.04082 c 2.29964,-7.76359 7.62228,-18.01684 13.15778,-25.34644 l 2.60051,-3.44334 -2.02991,0.22489 c -2.40473,0.26642 -2.54879,0.38864 -4.90904,4.16489 -5.22753,8.36368 -12.05285,24.60362 -10.70015,25.45958 0.95494,0.60427 1.4747,0.31145 1.88081,-1.05958 z m 55.69847,6.37009 v -18.02991 l 1.56027,-1.31564 c 4.92684,-4.15438 4.96807,-4.39338 5.08894,-29.50454 l 0.10089,-20.96 3.42495,-1.35278 c 12.96521,-5.12095 27.55245,-9.57307 40.68539,-12.41744 4.42915,-0.95928 5.03521,-1.17142 5.85622,-2.0499 L 241.63245,481.6 h -0.79492 c -2.59547,0 -19.34121,3.67248 -28.58759,6.2695 -4.26032,1.19658 -17.62391,5.72669 -20.01955,6.78639 l -1.49064,0.65939 -0.0899,-33.33764 -0.0899,-33.33764 -0.7392,-2.08 c -0.94152,-2.64931 -2.28482,-4.62157 -4.25007,-6.24 l -1.55429,-1.28 -0.0882,-17.87078 c -0.0485,-9.82893 6.9e-4,-18.01455 0.10937,-18.19027 0.28583,-0.46216 103.86073,-0.12932 108.76241,0.34951 28.30845,2.76537 43.84948,14.35776 48.48173,36.16357 l 0.23198,1.09204 -0.95582,-0.77204 c -0.52571,-0.42462 -2.26906,-1.96003 -3.87413,-3.41203 -3.28843,-2.97483 -3.20797,-2.94394 -4.7016,-1.80469 -0.81602,0.6224 -1.13049,0.72435 -1.23382,0.4 -0.0763,-0.23942 -0.36719,-1.1605 -0.64648,-2.04685 -0.64117,-2.03474 -4.08175,-5.53476 -6.26186,-6.37004 -0.792,-0.30344 -1.91027,-0.84087 -2.48505,-1.19429 l -1.04504,-0.64257 -0.55496,0.66137 c -0.43799,0.52198 -0.99333,0.67989 -2.63495,0.74922 l -2.08,0.0879 1.38612,1.50412 1.38612,1.50412 -1.15657,-0.18769 c -1.68463,-0.27337 -5.06859,1.21649 -5.93045,2.61101 -1.00137,1.62024 -0.87721,1.78287 1.19574,1.56621 1.53977,-0.16094 2.16503,-0.056 3.82176,0.64128 1.59514,0.67139 2.28028,0.79483 3.51904,0.63405 2.50436,-0.32506 2.59447,-0.48398 1.17443,-2.07115 -2.28906,-2.55846 -2.2886,-2.55637 -0.40592,-1.84101 0.91861,0.34904 2.4593,0.73462 3.42375,0.85684 l 1.75356,0.22222 -1.06454,1.04 c -0.58549,0.572 -1.2532,1.04 -1.48379,1.04 -1.05468,0 -1.64402,-0.71613 15.50075,18.83574 6.15121,7.01482 6.34418,7.48343 3.55838,8.64116 l -1.64162,0.68222 -1.95838,-0.95895 c -2.92533,-1.43243 -4.28934,-1.50773 -8.55696,-0.47238 -5.07181,1.23044 -8.79417,1.24835 -12.20816,0.0587 -3.17119,-1.10502 -2.91752,-1.17833 -3.58826,1.03696 -0.70537,2.32969 -0.27552,4.05711 0.92398,3.7131 4.7464,-1.36129 6.60717,-1.45374 9.95204,-0.49446 6.26461,1.79662 12.48266,1.36501 14.32936,-0.99465 l 0.77988,-0.99649 1.34562,0.97476 c 0.74009,0.53611 1.49026,1.02297 1.66704,1.0819 0.21183,0.0706 0.18793,1.06147 -0.0701,2.90604 -0.43614,3.11771 -0.21209,2.90858 -3.49555,3.26287 -0.96952,0.10461 -1.93935,0.29934 -2.15519,0.43273 -0.4576,0.28282 -0.94424,2.35819 -0.52492,2.23865 0.67941,-0.19369 4.60286,1.40679 4.60286,1.87763 0,2.16491 -3.83619,10.95156 -6.29325,14.41444 -1.66515,2.34679 -1.85234,2.381 -4.7153,0.8617 -2.9625,-1.57212 -7.77168,-1.61487 -7.13688,-0.0634 0.0904,0.22096 0.88334,2.00453 1.76206,3.96347 l 1.59767,3.56173 -2.28715,1.30586 c -4.48924,2.56315 -6.48318,3.19158 -8.68715,2.73793 -15.94747,-3.28251 -40.57458,-4.4998 -57.92,-2.86291 -7.18854,0.67838 -6.95881,0.61541 -8.32429,2.2818 -1.4408,1.75831 -1.47878,1.71766 1.28429,1.37502 30.47935,-3.77959 65.41865,-0.61221 76.96,6.97673 9.63083,6.33268 11.768,12.31965 12.1449,34.02212 0.32808,18.89153 1.54267,23.31667 7.02287,25.58664 l 0.99223,0.411 v 18.04263 18.04262 l -34.15252,-0.0814 -34.15253,-0.0814 -0.41095,-1.76 c -2.45675,-10.52165 -3.03136,-17.98643 -3.14123,-40.80777 -0.15665,-32.53641 -1.60894,-35.45944 -18.13748,-36.50531 l -3.44529,-0.21801 v 15.20363 c 0,20.71323 0.54006,23.3362 5.58277,27.11455 l 1.45723,1.09185 V 568.21947 586.24 h -38.56 -38.56 z M 333.96989,466.7307 c 1.67822,-0.50615 3.84904,-2.43761 3.45546,-3.07443 -1.83873,-2.97512 -17.10534,-3.62205 -17.10534,-0.72485 0,2.04383 2.42946,4.34956 4.27606,4.05828 0.55217,-0.0871 1.36394,-0.003 1.80394,0.18786 1.04651,0.45291 5.44812,0.19308 7.56988,-0.44686 z m -66.94822,-1.12601 c 7.354,-1.88084 10.66703,-6.79204 11.33924,-16.80918 1.1658,-17.37257 -4.03451,-23.81319 -19.2409,-23.82996 l -5.04,-0.006 v 20.64 20.64 h 5.22881 c 4.16849,0 5.73254,-0.12883 7.71285,-0.63531 z m 66.73834,-30.12283 c 0,-0.17183 0.3503,-0.63707 0.77844,-1.03385 l 0.77844,-0.72144 -0.70331,-1.25382 c -0.81767,-1.45769 -2.32991,-2.56862 -4.17153,-3.06451 -1.94379,-0.52341 -11.48939,1.02948 -12.48916,2.03176 -1.04659,1.04922 -4.04862,0.84749 -5.80346,-0.38998 -2.13735,-1.5072 -3.41104,-0.67005 -3.64462,2.39547 -0.0136,0.17902 1.13374,0.73713 2.54974,1.24025 l 2.57454,0.91476 2.07218,-0.68025 c 1.1397,-0.37414 2.89716,-0.69076 3.90546,-0.70361 1.00831,-0.0128 2.62528,-0.15717 3.59328,-0.3207 4.65024,-0.78562 4.30306,-0.82231 5.6996,0.60244 1.25516,1.28051 4.8604,2.01002 4.8604,0.98348 z m -14.74824,-10.73057 c 3.41787,-1.12606 3.68703,-2.43131 0.97241,-4.71551 l -0.99882,-0.84045 -1.01267,0.72234 c -0.84458,0.60242 -1.36933,0.70997 -3.16126,0.64785 -4.75048,-0.16466 -5.68475,4.2426 -1.00499,4.74089 1.03047,0.10972 2.04361,0.22067 2.25144,0.24654 0.20782,0.0259 1.53708,-0.33487 2.95389,-0.80166 z M 307.91523,424.24 c 0.3758,-1.04611 -0.39764,-2.48 -1.3377,-2.48 -0.5083,0 -0.97853,-0.16304 -1.04495,-0.3623 -0.26065,-0.78195 -2.17257,0.62981 -2.17257,1.60422 0,1.28486 4.13471,2.40865 4.55522,1.23808 z M 38.720001,497.39088 c -3.397152,-0.32364 -6.337958,-0.94435 -9.84,-2.07694 l -3.92,-1.26776 -0.06769,-29.74309 c -0.03723,-16.3587 -0.07323,-30.4722 -0.08,-31.36333 l -0.01231,-1.62023 4.520401,-1.85253 c 13.897,-5.69518 27.447592,-16.05618 37.387436,-28.587 1.221576,-1.54 2.453912,-2.8 2.738525,-2.8 1.3021,0 4.020151,1.09728 4.901688,1.97882 0.955145,0.95514 0.966743,0.95761 1.467353,0.31194 0.437528,-0.5643 6.226542,-1.63549 6.634415,-1.22761 0.819297,0.8193 5.577193,14.92041 7.16435,21.23319 1.498352,5.95957 1.463403,5.54366 0.465834,5.54366 h -0.8 v 18.21333 c 0,14.21893 0.08712,18.24238 0.397248,18.34575 1.137485,0.37916 -3.524877,10.79239 -7.017496,15.67334 -9.022497,12.60898 -27.697883,20.78575 -43.939754,19.23846 z m -2.518518,-25.35203 c 0.933739,-1.0239 0.773588,-3.68147 -0.296422,-4.91885 -1.185038,-1.37041 -5.50506,0.22732 -5.50506,2.036 0,2.67382 4.123501,4.72286 5.801482,2.88285 z M 46.016002,441.216 c 1.163411,-1.16341 -0.187469,-2.65257 -1.385381,-1.52719 -0.976865,0.91772 -0.989994,1.21167 -0.07062,1.58122 0.968072,0.38911 1.01458,0.38739 1.456,-0.054 z m 31.568944,-6.70737 c 1.222658,-0.55708 0.891636,-2.82863 -0.412202,-2.82863 -0.310608,0 -0.716853,-0.15211 -0.902767,-0.33803 -0.343774,-0.34377 -2.349974,1.04406 -2.349974,1.62564 0,1.74195 1.676655,2.44695 3.664943,1.54102 z M 82.733861,426.4 c 0.960295,-0.968 1.890025,-1.76 2.066066,-1.76 0.176042,0 0.320076,-0.432 0.320076,-0.96 0,-0.64 -0.16,-0.96 -0.48,-0.96 -0.264,0 -0.48,-0.12412 -0.48,-0.27582 0,-0.34383 -3.20115,-1.00418 -4.867916,-1.00418 -1.391715,0 -2.812084,1.11084 -2.812084,2.19928 0,0.34561 -0.08375,0.84662 -0.186111,1.11337 -1.068637,2.78482 4.020185,4.08655 6.439969,1.64735 z m 29.171379,18.48 c -0.38261,-14.50577 -2.95183,-17.64899 -15.252625,-18.66029 -4.761393,-0.39146 -4.006116,0.32097 -5.289622,-4.98951 -1.360527,-5.62915 -5.188801,-17.49569 -6.698318,-20.76284 -1.470984,-3.18375 -0.726518,-4.13133 1.624218,-2.06736 1.744365,1.53157 2.494617,0.7466 2.293445,-2.39958 L 88.480003,394.4 l 2.16,0.0494 c 1.188,0.0272 2.16,-0.0163 2.16,-0.0966 0,-0.0803 -0.307531,-0.68034 -0.683402,-1.33343 -1.847909,-3.21082 -0.06753,-9.6923 2.536086,-9.23262 0.903211,0.15947 1.120252,0.63136 -2.465166,-5.35979 l -3.012482,-5.03379 -3.227518,-1.61333 c -1.775135,-0.88733 -3.273818,-1.6551 -3.330407,-1.70614 -0.05659,-0.051 0.225967,-1.9425 0.627901,-4.20325 2.697215,-15.17091 -0.647472,-33.49007 -8.769417,-48.03091 l -1.761071,-3.15287 -1.953533,-37.74333 C 68.180272,227.08236 68.44927,228.79358 62.611472,225.10032 l -1.399551,-0.88543 -0.194458,-3.86744 c -0.106953,-2.1271 -0.510388,-9.9575 -0.896523,-17.40089 -0.41873,-8.07171 -0.5848,-13.63588 -0.411501,-13.78728 1.607718,-1.40454 102.891721,-5.38613 111.330571,-4.37653 30.28385,3.62308 44.04236,21.73766 45.58472,60.01725 0.18083,4.488 0.49237,11.184 0.69233,14.88 2.5877,47.83269 -13.5869,63.63844 -67.97051,66.42045 -7.2526,0.37101 -13.37994,0.7348 -13.61631,0.80843 -0.45791,0.14264 -0.349,3.40681 0.30042,9.00347 0.62803,5.41241 2.45128,9.02738 5.69303,11.28765 1.46553,1.02183 1.60773,1.2322 1.62227,2.4 0.009,0.704 0.37471,8.048 0.8132,16.32 0.43849,8.272 0.79806,15.436 0.79905,15.92 l 0.002,0.88 h 12.64 12.64 v 34.56 34.56 h -29.0756 -29.07559 z m 32.65681,-161.03828 c 7.18476,-1.72141 9.91047,-5.16978 10.74918,-13.59905 0.38193,-3.83846 0.38331,-3.84278 1.25556,-3.94393 0.48027,-0.0557 0.87322,-0.25077 0.87322,-0.43352 0,-0.18275 0.35007,-1.02926 0.77794,-1.88114 1.00265,-1.99621 1.2004,-5.41051 0.40129,-6.92819 -0.69709,-1.3239 -0.71575,-1.27155 0.53703,-1.50657 l 1.07627,-0.20191 0.56415,-3.91371 c 1.23145,-8.54312 0.98843,-25.79629 -0.49401,-35.0709 -0.82909,-5.18709 -0.74883,-5.08565 -2.79141,-3.52809 -0.92482,0.70522 -2.18318,1.49184 -2.79637,1.74805 l -1.11489,0.46583 v 2.87223 2.87223 l 1.76298,-0.86465 1.76299,-0.86465 0.70881,0.70882 0.70882,0.70881 -2.4718,2.48639 -2.4718,2.48639 v 3.07695 3.07695 l 1.68,-0.044 c 2.69951,-0.0708 2.24097,3.35157 -0.57352,4.28043 -0.94217,0.31095 -1.11057,0.51593 -1.13399,1.38036 l -0.0275,1.01518 -0.28683,-0.96 c -0.18098,-0.60575 -0.17083,-0.99936 0.0275,-1.06667 0.17288,-0.0587 0.31433,-1.04607 0.31433,-2.19423 0,-1.5369 -0.10552,-2.04792 -0.4,-1.93725 -1.53119,0.57543 -1.68043,0.52534 -2.74872,-0.9226 l -1.06871,-1.44853 2.10871,-2.18424 2.10872,-2.18425 v -2.11933 -2.11934 l -1.04,0.53283 c -0.572,0.29306 -2.30413,1.79342 -3.84917,3.33414 l -2.80917,2.80132 -1.51083,-0.50042 c -1.13309,-0.37529 -2.96478,-0.50679 -7.32601,-0.52592 l -5.81517,-0.0255 0.69517,-1.24154 c 0.9536,-1.70308 1.7905,-2.44493 3.44517,-3.05393 1.29471,-0.47651 1.41827,-0.61894 1.51111,-1.7418 l 0.10111,-1.22285 -1.06111,0.22769 c -1.34817,0.28929 -1.54111,0.40897 -1.54111,0.95594 0,0.52437 -2.21054,2.10819 -3.96628,2.84178 -1.49075,0.62287 -4.03528,0.6953 -4.03025,0.11471 0.006,-0.70616 0.88051,-3.31648 1.55156,-4.63185 l 0.65097,-1.276 -1.343,0.25999 c -2.36608,0.45804 -2.3353,0.47855 -3.04964,-2.03214 -0.96096,-3.37745 -2.81189,-8.50806 -3.26739,-9.05691 -0.3261,-0.39293 -0.0854,-0.79643 1.41042,-2.36468 1.79835,-1.88538 2.32221,-3.21841 1.26479,-3.21841 -0.29636,0 -1.22166,0.70842 -2.05622,1.57427 l -1.5174,1.57426 -0.20547,-1.17426 c -0.113,-0.64585 -0.48865,-1.67827 -0.83477,-2.29427 -0.85078,-1.51418 -0.87468,-1.59743 3.72039,12.96 2.16663,6.864 4.19354,13.308 4.50425,14.32 0.62337,2.03036 1.23018,2.33786 2.36804,1.2 0.64,-0.64 0.64,-0.64 0.64,0.736 0,0.7568 -0.14743,1.52343 -0.32762,1.70362 -0.53779,0.5378 -0.45468,2.57553 0.1422,3.48649 0.47939,0.73164 0.68434,3.27719 1.47672,18.34172 0.50604,9.62069 0.99556,18.78817 1.08783,20.37217 0.0923,1.584 0.26248,4.66523 0.37825,6.84718 l 0.21049,3.96719 4.35607,-0.20982 c 2.50068,-0.12045 5.4814,-0.47944 6.99811,-0.84283 z M 155.27338,260.96 c -0.0503,-0.60736 0.087,-0.8 0.57021,-0.8 0.7374,0 0.78474,0.2578 0.19096,1.04 -0.5657,0.74522 -0.68268,0.70834 -0.76117,-0.24 z m 3.33996,-30.13333 c -0.51253,-0.51254 -0.1747,-1.62154 0.60172,-1.97531 1.13824,-0.51861 1.20269,-0.48437 0.95391,0.50685 -0.34275,1.36564 -1.01956,2.00452 -1.55563,1.46846 z m -15.47744,-5.75531 c 1.60265,-0.82728 5.26521,-4.52355 6.95902,-7.02308 0.989,-1.45947 1.89085,-2.41729 2.52226,-2.67883 0.54055,-0.2239 0.98283,-0.60563 0.98283,-0.84827 0,-0.63687 -0.44983,-0.5429 -1.15041,0.24033 -0.72322,0.80853 -2.84565,2.19849 -3.35704,2.19849 -0.19809,0 -0.788,0.36 -1.31091,0.8 -0.52291,0.44 -1.15063,0.8 -1.39494,0.8 -0.59974,0 -1.1067,1.02107 -1.1067,2.22901 0,1.04404 -0.0217,1.06028 -2.1456,1.60365 -1.67928,0.42962 -2.3344,1.06673 -2.3344,2.2702 0,1.11288 0.72553,1.23976 2.33589,0.4085 z m -2.28204,-7.2053 c 1.91126,-0.57263 1.43935,-2.01487 -0.70486,-2.15416 -0.48143,-0.0313 -1.589,1.48647 -1.589,2.17747 0,0.45184 0.73279,0.4444 2.29386,-0.0233 z M 134.56,214.62585 c 1.51394,-0.77026 2.84132,-2.05422 3.36526,-3.25517 0.86695,-1.9872 2.44167,-3.95027 3.59316,-4.47929 0.57287,-0.26319 1.25759,-0.60207 1.52159,-0.75306 0.264,-0.151 1.2,-0.62189 2.08,-1.04643 1.46035,-0.70453 1.62792,-0.90067 1.92,-2.24732 0.38174,-1.76012 0.95296,-2.52458 1.88641,-2.52458 0.44747,0 0.88484,-0.36363 1.25087,-1.04 0.47252,-0.87313 2.37629,-2.48 2.93823,-2.48 0.0905,0 0.16449,0.9458 0.16449,2.10179 v 2.10179 l 0.92645,-0.65969 c 0.50954,-0.36283 1.21407,-0.76864 1.56561,-0.90179 0.63571,-0.24079 0.63546,-0.25118 -0.0465,-1.9248 -0.42843,-1.0515 -0.83566,-1.62167 -1.08561,-1.52 -0.22,0.0895 -0.616,0.25011 -0.88,0.35694 -0.38121,0.15425 -0.48,-0.0818 -0.48,-1.14667 0,-1.64904 -0.54058,-1.58985 -1.12967,0.1237 -0.57369,1.66874 -0.78008,1.81854 -2.62218,1.90317 -2.40996,0.11071 -4.30112,1.74127 -3.73392,3.21939 0.13211,0.34426 -0.21094,0.51489 -1.36898,0.68091 -1.87657,0.26904 -2.9125,1.14518 -3.16456,2.67644 -0.43949,2.66986 -1.92895,4.18882 -4.10747,4.18882 -0.59452,0 -0.97664,0.32803 -1.5309,1.31421 -0.50529,0.89904 -1.21768,1.55697 -2.25504,2.08264 -1.6763,0.84944 -2.17652,1.86602 -1.57156,3.19376 0.37358,0.81992 1.20125,0.83047 2.76427,0.0352 z m 12.89988,-2.16646 c 1.25455,-0.57413 2.80045,-1.67392 4.08,-2.9026 l 2.06013,-1.97824 v -2.13594 c 0,-2.85544 0.20015,-2.9127 -4.0698,1.16431 -2.07361,1.97992 -4.2382,3.85607 -4.8102,4.16923 -1.05166,0.57577 -1.18992,0.95166 -0.83597,2.27282 0.22864,0.8534 0.53199,0.80338 3.57584,-0.58958 z m 8.10722,-1.8217 c 0.55614,-0.97203 1.44056,-2.25639 1.96539,-2.85413 l 0.95423,-1.08681 -0.57878,-1.28351 -0.57878,-1.28351 -1.86458,1.84512 -1.86457,1.84511 v 2.6892 c 0,3.11972 0.24649,3.13583 1.96709,0.12853 z M 120.64,196.13842 c 0.792,-0.22761 1.48444,-0.4443 1.53875,-0.48154 0.19081,-0.13083 -0.83756,-2.3013 -1.19503,-2.52223 -0.38292,-0.23665 -1.03875,0.42213 -2.59139,2.60301 -1.19638,1.68046 -1.22549,2.26013 -0.0723,1.44026 0.484,-0.34412 1.528,-0.81189 2.32,-1.0395 z m 33.33234,-3.52817 c -0.18794,-1.34452 -0.69233,-1.46661 -0.69233,-0.16758 0,0.82795 0.12644,1.16754 0.4,1.07425 0.22,-0.075 0.35155,-0.48303 0.29233,-0.90667 z M 18.269358,419.39537 c -0.247573,-0.2983 -0.339447,-1.79845 -0.279182,-4.55855 l 0.08982,-4.11392 6.418153,-3.30244 c 6.996324,-3.59995 6.432285,-3.11583 8.27256,-7.10046 0.80272,-1.73808 4.044439,-0.41891 3.574246,1.45448 -0.09415,0.37512 0.03165,0.95732 0.279556,1.29378 0.543337,0.73742 2.605318,-0.95635 2.950245,-2.42341 0.545015,-2.31808 3.625241,-3.11815 3.625241,-0.94164 0,0.49489 0.162758,0.49077 2.16,-0.0547 2.442548,-0.66706 4.127202,-0.75724 5.363713,-0.28712 1.800509,0.68455 7.35787,-3.07543 9.807095,-6.63526 1.067827,-1.55203 2.053323,-1.74845 1.995352,-0.39769 -0.01861,0.43367 0.164579,0.93358 0.40709,1.11091 0.681917,0.49862 -7.834095,7.86584 -13.49325,11.67302 -9.520954,6.4052 -29.942537,15.76276 -31.170644,14.28298 z M 17.920001,406.4 c 0,-2.66667 0.04741,-2.88 0.64,-2.88 0.352,0 0.93375,-0.29375 1.292778,-0.65278 1.97455,-1.97455 4.467222,-0.72888 4.467222,2.23242 0,0.87697 -4.384499,4.18036 -5.548487,4.18036 H 17.920001 Z M 229.98922,375.64383 c -0.10637,-1.82811 -0.51771,-9.6892 -0.91407,-17.4691 l -0.72067,-14.14527 1.83589,-1.92474 c 4.80384,-5.03632 4.68889,-1.91076 1.97527,-53.70884 -1.14091,-21.77774 -2.29818,-43.91588 -2.57172,-49.19588 -0.87996,-16.98557 -1.21068,-18.03672 -7.24912,-23.04 l -0.77241,-0.64 -0.76069,-15.0719 -0.7607,-15.07189 -5.14549,-0.20316 c -41.03155,-1.61999 -60.0104,-16.773 -61.1875,-48.85305 -0.18933,-5.15994 2.12785,-76.123377 2.76377,-84.64 2.69868,-36.142737 25.38832,-50.82066751 72.99785,-47.2223234 44.04262,3.3287556 57.9206,19.4350344 56.18814,65.2099194 l -0.45068,11.907596 -1.66044,3.341205 c -10.20291,20.530633 -28.98509,30.436723 -50.09435,26.420743 -1.74774,-0.3325 -3.2813,-0.71538 -3.40793,-0.85085 -0.20315,-0.21733 0.11476,-10.7956 1.29166,-42.979388 0.4556,-12.458943 0.42708,-15.80847 -0.15391,-18.079671 -2.45994,-9.61636 -15.86567,-10.48383 -19.33343,-1.251046 -1.12073,2.983897 -1.20271,4.119988 -1.9616,27.183815 -0.39379,11.968 -0.77906,21.832 -0.85616,21.92 -0.98521,1.12459 -11.6261,-12.821802 -14.45545,-18.945917 -10.74584,-23.259328 -2.35045,-42.464958 23.25787,-53.205591 5.78694,-2.42716 6.18854,-3.333974 2.33742,-5.278012 -6.70333,-3.38383 -14.42044,0.719674 -24.65396,13.10952 -12.71244,15.391114 -7.84752,46.237446 10.11501,64.134801 l 3.38656,3.374279 -0.61624,17.61164 c -0.63819,18.2391 -0.58949,20.40596 0.52563,23.38638 2.83362,7.57353 14.2013,8.36346 18.06985,1.25566 1.64646,-3.02509 1.79144,-4.14226 2.30376,-17.7525 0.26479,-7.03436 0.52459,-12.83289 0.57733,-12.88563 0.0528,-0.0527 1.15318,0.12651 2.44542,0.39834 17.77157,3.73837 37.13275,-2.89625 49.85312,-17.083469 2.05898,-2.296406 2.6134,-2.76202 2.61576,-2.196775 0.0115,2.735323 -1.33227,39.172054 -1.59798,43.331204 -1.2785,20.01201 -9.0414,34.26359 -22.35603,41.04251 -1.96931,1.00264 -3.07657,1.01168 19.14056,-0.1563 23.8125,-1.25186 21.03836,-1.60709 17.70639,2.2673 -4.06415,4.72577 -7.70509,10.57907 -9.73574,15.65148 l -0.7602,1.89893 -0.16366,-2.92173 c -0.19022,-3.39583 -0.97738,-4.62242 -3.3411,-5.20624 -0.71238,-0.17596 -1.82,-0.47968 -2.46137,-0.67494 -3.91417,-1.19165 -7.19582,2.07768 -6.93621,6.91017 l 0.10234,1.9051 2.73522,2.15853 2.73523,2.15853 1.42477,-0.46052 c 0.78363,-0.25329 1.97281,-0.54195 2.64263,-0.64148 0.66982,-0.0995 1.49782,-0.46094 1.84,-0.80312 0.76005,-0.76005 0.75998,-0.82141 0.002,1.66414 -5.51633,18.08441 -3.05797,41.62596 5.57494,53.38635 l 1.14118,1.55459 0.51501,10.02639 c 0.28325,5.51451 0.5672,10.08588 0.63099,10.15859 0.90465,1.0312 13.73781,-1.32694 16.11316,-2.96085 l 1.11493,-0.76691 2.3167,1.05575 c 15.54309,7.08322 35.77704,7.00638 57.92325,-0.21996 6.98525,-2.27929 6.32543,-2.55617 5.50084,2.30835 -4.91297,28.9831 -21.93246,39.50236 -67.81065,41.91183 -7.128,0.37435 -12.99106,0.70996 -13.02902,0.7458 -0.22167,0.20926 0.65059,9.9781 1.04584,11.71288 0.90708,3.98126 3.00865,7.16394 6.12897,9.28185 0.60015,0.40735 2.98816,34.59257 2.47622,35.44799 -0.0463,0.0774 -57.82489,3.16921 -70.5707,3.77633 l -4.66869,0.22238 z M 68.779415,368.72 c -0.01132,-1.012 -0.197169,-5.13637 -0.412992,-9.16526 l -0.392404,-7.32526 1.698231,-1.60611 c 4.026392,-3.808 4.5733,-6.73056 3.851285,-20.58045 -0.283229,-5.43299 -0.454838,-9.93828 -0.381353,-10.01177 0.18486,-0.18486 3.335854,6.54296 4.72044,10.07881 4.76454,12.16732 5.466108,24.20189 2.131344,36.5607 l -0.690732,2.55989 -1.171616,-0.17695 c -0.644388,-0.0973 -1.301675,-0.29546 -1.460638,-0.4403 -0.449882,-0.40992 -1.549067,0.32164 -1.332246,0.88666 0.152197,0.39662 -0.02563,0.4659 -0.926013,0.36079 -0.71864,-0.0839 -1.170891,0.0172 -1.273507,0.28458 -0.107828,0.28099 -0.832887,0.41467 -2.249168,0.41467 H 68.800002 Z M 330.56001,277.24237 c -5.86132,-0.78814 -13.27242,-2.82882 -17.32958,-4.77179 l -1.16958,-0.56011 0.91918,-1.26889 c 2.84983,-3.93407 3.29552,-8.67575 2.38385,-25.36158 -1.32897,-24.32333 -3.64132,-27.35706 -20.64387,-27.08414 -1.848,0.0297 -3.54672,0.17239 -3.77494,0.31716 -0.33796,0.21438 -0.26375,3.1146 0.4,15.63211 0.44822,8.45289 0.80306,16.14424 0.78855,17.09188 l -0.0264,1.72299 -1.55436,-3.18382 c -10.59415,-21.70013 -3.91193,-48.68065 17.9236,-72.36941 l 1.24969,-1.35575 3.93693,-0.21679 c 10.10381,-0.55638 29.38048,1.84263 30.84956,3.83927 0.19395,0.2636 0.45127,2.00488 0.57182,3.86951 1.33415,20.636 11.82227,43.33293 27.27726,59.02963 l 5.21114,5.29265 0.21802,5.90735 c 0.11991,3.24905 0.11126,8.16685 -0.0192,10.92846 l -0.23726,5.02109 -1.48719,0.52831 c -19.25545,6.84026 -32.02147,8.80253 -45.4872,6.99187 z m 29.44,-7.64237 c 0,-0.264 0.12964,-0.48 0.28809,-0.48 0.94821,0 1.40947,-5.72822 0.53873,-6.69037 -1.99523,-2.20471 -6.60614,-0.13615 -6.15193,2.75989 0.32172,2.05121 5.32511,6.19524 5.32511,4.41048 z m -9.62782,-6.53603 c 0.8731,-0.55268 1.26159,-2.01612 0.78612,-2.96129 -0.85775,-1.70509 -3.3183,-1.4194 -3.3183,0.38529 0,2.07826 1.27287,3.37315 2.53218,2.576 z m -7.00439,-32.19335 c 0.3371,-0.40619 0.27773,-0.62608 -0.34927,-1.29349 l -0.75542,-0.8041 -0.55121,0.73076 c -0.92025,1.21999 0.6809,2.54163 1.6559,1.36683 z m -27.93139,-9.81402 c 1.69466,-1.40645 -0.0192,-6.33959 -1.9457,-5.60034 -4.71347,1.80873 -4.94321,6.72241 -0.28873,6.17537 0.98773,-0.11609 1.99323,-0.37485 2.23443,-0.57503 z m 19.57054,-13.35973 c 1.65955,-0.84664 2.16967,-2.10029 1.63365,-4.01477 -0.43891,-1.56763 -0.46821,-1.59946 -2.58581,-2.80839 l -1.46523,-0.83649 -1.65477,0.76667 c -0.91013,0.42167 -1.66336,0.95329 -1.67385,1.18139 -0.0105,0.22809 -0.13531,1.12275 -0.27738,1.98811 -0.5318,3.23948 2.861,5.33681 6.02339,3.72348 z m -2.80608,-12.84716 c 1.2672,-0.93942 2.19914,-1.86878 2.19914,-2.19306 0,-0.30952 0.09,-1.42409 0.20006,-2.47681 l 0.20006,-1.91404 -4.32133,-3.06092 c -4.73795,-3.35601 -5.67879,-3.93479 -5.67879,-3.49346 0,0.16166 -0.26849,0.36415 -0.59664,0.44996 -2.01497,0.52693 1.13153,11.59255 3.79963,13.36257 1.82284,1.20927 1.61133,1.24324 4.19787,-0.67424 z m 42.01233,33.8734 c -7.34993,-12.29315 -13.0551,-26.30354 -15.16664,-37.24526 -0.90629,-4.69631 -0.91428,-4.67766 1.14303,-2.66692 10.03738,9.81019 15.36007,23.30771 16.55819,41.98907 0.17191,2.68035 0.44209,2.90174 -2.53458,-2.07689 z M 108.64,178.06009 c -15.839997,-0.5819 -29.915997,-1.06747 -31.279997,-1.07904 l -2.48,-0.0211 0.0048,-3.12 c 0.0026,-1.716 0.214646,-8.62316 0.471133,-15.34923 l 0.466341,-12.22924 2.20094,-2.17076 c 2.647208,-2.61092 3.436928,-4.42851 3.910973,-9.00137 0.442532,-4.26887 1.319775,-31.16899 1.025105,-31.43418 -0.21991,-0.19791 -20.247431,-1.03642 -20.423948,-0.85511 -0.3434,0.35273 -1.153639,32.65841 -0.861814,34.36208 0.491529,2.86952 1.652787,5.15669 3.571433,7.03415 l 1.672239,1.63635 -0.32813,8.28365 c -0.180471,4.55601 -0.422807,11.45166 -0.538525,15.32366 -0.115717,3.872 -0.228428,7.05804 -0.250467,7.0801 -0.05689,0.0569 -35.55038,-1.20888 -35.605819,-1.26982 -0.02516,-0.0276 -0.356002,-2.78628 -0.735205,-6.13028 -0.379203,-3.344 -0.769142,-6.54 -0.866532,-7.10222 -0.161963,-0.93499 -0.07875,-1.0633 0.975205,-1.50367 l 1.152277,-0.48145 v -2.69751 c 0,-2.69553 7.03e-4,-2.6978 0.96,-3.09515 1.12094,-0.46431 1.208406,-0.92508 0.32,-1.68575 -2.110669,-1.80721 1.300375,-4.27062 4.411642,-3.18603 1.312592,0.45757 1.901546,0.0381 1.422551,-1.01318 -0.299089,-0.65643 -0.251432,-1.1634 0.250325,-2.66291 0.962118,-2.87532 1.109527,-2.55772 -3.286236,-7.08039 -2.609697,-2.68504 -8.507746,0.19354 -8.544428,4.17016 l -0.01385,1.50191 -3.186749,1.80435 c -2.988019,1.69183 -3.175979,1.8582 -3.014052,2.66784 0.104845,0.52422 -0.594231,3.81421 -1.779301,8.37374 l -1.951997,7.51026 -2.229292,2.08135 c -1.99242,1.86019 -2.251176,2.241 -2.435252,3.58399 -0.41759,3.04665 -1.8598559,3.53071 -3.9767312,1.3347 C 6.8819942,170.82601 4.9156186,169.16857 3.2969153,167.95678 1.6782121,166.745 0.27179356,165.62082 0.1715409,165.4586 0.07128824,165.29639 0.16011,160.29962 0.36892254,154.35467 L 0.74858175,143.54566 2.6572531,141.7728 c 1.0497693,-0.97507 2.1773411,-1.87621 2.5057153,-2.00254 0.3283741,-0.12633 0.6074599,-0.41433 0.6201906,-0.64 0.1003182,-1.77829 0.2761167,-2.96451 0.7408646,-4.99907 0.4263833,-1.86661 0.7250165,-7.70323 1.4547621,-28.43251 C 8.4838069,91.35267 9.0191874,79.508893 9.1685081,79.379226 9.3178288,79.249559 10.664,78.672125 12.16,78.096039 c 1.496,-0.576087 3.196232,-1.319367 3.778292,-1.651735 1.305286,-0.745343 1.318638,-0.745204 1.120709,0.01168 -0.101296,0.387358 0.382504,1.45628 1.303504,2.88 L 19.827091,81.6 h 1.725777 c 1.829844,0 3.732673,-0.688795 6.166117,-2.232039 l 1.396344,-0.885536 -0.815342,-1.241213 c -0.448437,-0.682667 -1.707386,-2.056472 -2.797664,-3.0529 -1.090277,-0.996428 -1.910322,-1.862155 -1.822322,-1.923839 0.088,-0.06168 1.823026,-1.217619 3.855614,-2.568746 C 39.817766,61.531383 49.762856,49.440631 55.909626,35.2 c 0.29967,-0.694266 0.323253,-0.622936 0.178433,0.539686 -0.645495,5.182064 1.806297,7.866815 7.223913,7.910295 l 1.39197,0.01117 -0.188854,2.569423 c -1.751684,23.83238 -2.32285,22.455539 9.500659,22.902094 C 86.127194,69.590097 84.334585,71.689721 84.818293,56.48 85.338294,40.129061 85.100984,38.638482 81.398075,34.997122 L 79.727428,33.354243 80.232759,18.197122 C 80.510691,9.8607048 80.82402,2.9406667 80.929046,2.8192594 81.034072,2.6978521 88.680003,2.8692627 97.920003,3.2001718 107.16,3.531081 121.92,4.0467152 130.72,4.3460256 c 8.8,0.2993104 16.04374,0.5796335 16.09719,0.6229402 0.0534,0.043307 -0.14056,6.9710062 -0.43115,15.3948872 L 145.85771,35.68 l -0.84885,0.623661 c -5.47273,4.020877 -5.19156,1.892732 -6.91477,52.336339 -0.78462,22.968 -1.50734,43.128 -1.60606,44.8 -0.37295,6.31649 0.83703,10.59727 3.77107,13.34173 l 1.61621,1.51177 -0.3842,12.17325 c -0.21131,6.69529 -0.47291,13.64925 -0.58132,15.45325 l -0.19713,3.28 -1.63633,-0.0409 C 138.17635,179.13652 124.48,178.64199 108.64,178.06009 Z M 32.221116,131.76 c 0.142387,-0.22 0.267148,-1.768 0.277247,-3.44 0.0101,-1.672 0.135435,-3.57072 0.278524,-4.21939 0.542058,-2.45729 -1.787082,-5.37429 -4.296886,-5.38139 -0.616,-0.002 -1.512719,-0.20803 -1.992709,-0.45843 -2.956084,-1.54211 -6.207853,4.20281 -4.222661,7.4602 1.041373,1.70873 9.455889,6.81247 9.956485,6.03901 z m -16.166312,-4.9296 c 0.897933,-0.81262 0.152172,-3.9504 -0.938898,-3.9504 -0.584531,0 -1.675906,1.04146 -1.675906,1.59926 0,0.33163 -0.144389,0.69221 -0.320865,0.80127 -0.467343,0.28884 0.213368,1.4154 1.061784,1.75724 1.008655,0.40639 1.221745,0.38281 1.873885,-0.20737 z m 18.665197,-11.10817 c 2.395435,-1.12514 2.811677,-1.7057 2.171139,-3.02827 -0.878312,-1.81351 -3.127607,-4.0287 -4.937409,-4.86254 -0.942552,-0.43426 -1.864569,-0.98198 -2.048929,-1.21715 -1.147718,-1.46404 -3.98052,0.78183 -4.055233,3.21503 -0.149178,4.85833 4.498927,7.94622 8.870432,5.89293 z M 9.0892014,72.907823 C 9.1819537,72.32052 9.4264561,65.936 9.63254,58.72 10.073971,43.263365 9.5346849,44.559693 14.160396,47.835996 c 3.861351,2.734921 5.348534,3.131348 5.357108,1.428004 0.0014,-0.2728 0.161431,-0.654934 0.355683,-0.849187 0.84134,-0.841339 -2.895058,-10.624937 -4.513186,-11.817587 -1.80937,-1.333605 -1.778545,-1.335278 -3.848155,0.208858 L 9.7881044,38.092167 8.8799906,36.086084 C 8.3468176,34.908269 7.2949218,33.392806 6.3322788,32.415603 L 4.6926808,30.751206 5.2330454,15.475565 C 5.530246,7.073962 5.8208675,0.15246607 5.878871,0.09446253 6.2699461,-0.29661253 57.354416,1.8376756 57.64332,2.2571599 58.099536,2.9195779 57.754401,10.193989 57.12034,13.28 52.510576,35.716007 33.455247,61.533581 14.049425,71.635675 9.1053871,74.209394 8.8742844,74.268665 9.0892014,72.907823 Z M 12.836916,31.014417 c 1.092037,-0.550744 1.16949,-0.694604 1.381135,-2.565294 l 0.224218,-1.981829 -1.381134,-1.419949 c -1.269455,-1.30513 -1.486286,-1.408606 -2.681537,-1.279672 -4.6245182,0.498853 -5.5961038,4.844401 -1.610428,7.202855 1.724431,1.020402 2.122951,1.024702 4.067746,0.04389 z M 31.697559,15.348076 c 3.933845,-2.671422 0.985116,-6.3807071 -3.656465,-4.599565 -1.416044,0.543387 -1.415997,3.239151 8.6e-5,4.922069 1.055184,1.254015 1.3766,1.225665 3.656379,-0.322504 z m 34.398323,17.305982 c -2.786784,-2.149417 -2.890614,-2.197995 -3.845316,-1.799095 -0.539657,0.225483 -1.680883,0.514894 -2.536057,0.643136 -0.98063,0.147054 -1.835476,0.513779 -2.314685,0.992988 -0.417902,0.417902 -0.759822,0.719589 -0.759822,0.670416 0,-0.04917 0.359989,-1.147817 0.799975,-2.441431 2.188389,-6.434128 3.19819,-14.259844 2.946052,-22.8311858 l -0.177414,-6.0311137 5.815694,0.2293922 c 3.198631,0.1261658 5.826489,0.248167 5.839683,0.2711138 0.0132,0.022947 -0.221183,6.9333301 -0.520839,15.3564075 l -0.54483,15.314685 -0.91916,0.916876 -0.919161,0.916876 z"
       id="path1" />
  </g>
</svg>
