<?xml version="1.0" encoding="UTF-8" standalone="no"?>
<!-- Created with Inkscape (http://www.inkscape.org/) -->

<svg
   version="1.1"
   id="svg1"
   width="377.92001"
   height="575.03998"
   viewBox="0 0 377.92001 575.03998"
   xmlns="http://www.w3.org/2000/svg"
   xmlnsSvg="http://www.w3.org/2000/svg">
  <defs
     id="defs1" />
  <g
     id="g1">
    <path
       style="fill:#000000"
       d="m 44.170394,569.85011 c -0.949657,-2.86557 -3.643435,-10.97013 -5.986172,-18.01013 -2.342738,-7.04 -4.26058,-12.908 -4.261872,-13.04 -0.0013,-0.132 2.062182,-0.24 4.585498,-0.24 h 4.587848 l 2.994592,9.92 c 3.590791,11.89499 2.770102,11.88476 6.24544,0.0778 l 2.895727,-9.83781 4.288129,-0.0897 c 2.358471,-0.0494 4.445058,-0.0295 4.63686,0.0441 0.215428,0.0827 -1.923744,7.02806 -5.596256,18.16974 l -5.944987,18.03591 -3.359078,0.0901 -3.359079,0.0901 z m 24.066966,-12.97013 0.08264,-18.16 4.400001,-0.089 4.4,-0.089 v 14.24903 14.24903 h 7.68 7.68 v 4 4 H 80.317361 68.154718 Z m 25.849121,17.92 c 0.0036,-0.132 2.944562,-8.304 6.535549,-18.16 l 6.52908,-17.92 3.36749,-0.0906 c 2.96321,-0.0798 3.40265,-0.0222 3.66046,0.48 0.16113,0.31386 3.15581,8.4484 6.65484,18.07677 3.49902,9.62837 6.45301,17.40437 6.56441,17.28 0.15163,-0.16927 10.83979,-29.33525 12.83567,-35.02612 l 0.30863,-0.88 h 3.46388 3.46388 l 0.38408,1.2 c 0.21124,0.66 0.78814,2.28 1.28201,3.6 0.49386,1.32 3.2013,8.736 6.01654,16.48 2.81523,7.744 5.21842,14.33594 5.34041,14.64877 0.20737,0.53177 -0.0871,0.56299 -4.52651,0.48 l -4.74831,-0.0888 -0.80929,-2.6424 -0.80929,-2.64241 -5.58976,0.0824 -5.58975,0.0824 -0.83999,2.56 -0.83998,2.56 -9.4196,0.0847 -9.41959,0.0846 -0.79347,-2.64465 -0.79346,-2.64465 -5.60893,-0.0871 -5.60893,-0.0871 -0.88812,2.7271 -0.88812,2.72711 h -4.620154 c -2.541084,0 -4.617238,-0.108 -4.613675,-0.24 z m 19.738349,-12.98645 c -0.09,-0.23455 -0.76501,-2.33976 -1.50001,-4.67823 -0.735,-2.33847 -1.44594,-4.12657 -1.57986,-3.97355 -0.30191,0.34498 -2.90872,8.12829 -2.90654,8.67823 0.001,0.29213 0.83061,0.4 3.07582,0.4 2.42963,0 3.03992,-0.0894 2.91059,-0.42645 z m 33.37518,0.32601 c 0,-0.32056 -2.79058,-8.87681 -2.94573,-9.03196 -0.164,-0.16399 -3.13427,8.26348 -3.13427,8.89278 0,0.13179 1.368,0.23962 3.04,0.23962 1.672,0 3.04,-0.0452 3.04,-0.10044 z m 17.03735,-5.25956 0.0827,-18.16 3.87202,-0.0895 3.87202,-0.0895 5.72798,9.02117 5.72798,9.02117 0.16,-8.93171 0.16,-8.9317 4.4,-0.089 4.4,-0.089 v 18.24903 18.24903 l -3.92,-0.0116 -3.92,-0.0116 -5.56311,-8.78843 c -4.80722,-7.5943 -6.24832,-9.62082 -6.079,-8.54843 0.0208,0.132 0.0208,4.092 0,8.8 l -0.0379,8.56 h -4.48265 -4.48264 z m 35.76265,-0.08 v -18.24 l 7.28,0.006 c 16.56682,0.0126 19.92067,3.13782 19.91202,18.55444 -0.008,14.79491 -3.41376,17.92 -19.52777,17.92 h -7.66425 z m 15.8973,9.40655 c 2.02773,-1.51277 2.1827,-2.18061 2.1827,-9.40655 0,-8.9664 -0.58383,-9.91017 -6.29966,-10.18344 l -2.82034,-0.13485 v 10.31004 10.31003 l 3.0173,-0.11089 c 2.45563,-0.0902 3.18534,-0.23626 3.92,-0.78434 z m 17.3827,-9.40655 v -18.24 h 12.32 12.32 v 4 4 h -7.84 -7.84 v 3.04 3.04 h 6.72 6.72 v 4 4 h -6.72 -6.72 v 3.2 3.2 h 7.84 7.84 v 4 4 h -12.32 -12.32 z m 31.04,-0.0303 v -18.27029 l 8.72,0.12905 c 12.55111,0.18575 15.91914,1.87612 17.70644,8.88662 1.15204,4.51876 -2.02898,12.16492 -5.06094,12.16492 -0.51039,0 -0.14898,0.81104 3.4345,7.70752 2.024,3.89523 3.68,7.21054 3.68,7.36736 0,0.15681 -2.27841,0.28512 -5.06314,0.28512 h -5.06314 l -3.17686,-6.71261 -3.17686,-6.7126 -1.52,-0.007 -1.52,-0.007 v 6.72 6.72 h -4.48 -4.48 z m 16.64823,-3.7687 c 3.24835,-3.24835 0.60708,-6.4137 -5.36823,-6.43337 l -2.32,-0.008 v 3.68 3.68 h 3.38462 c 3.30045,0 3.40746,-0.0229 4.30361,-0.919 z m 16.63177,3.799 v -18.24 h 12.32 12.32 v 4 4 h -7.84 -7.84 v 3.04 3.04 h 6.72 6.72 v 4 4 h -6.72 -6.72 v 3.2 3.2 h 7.84 7.84 v 4 4 h -12.32 -12.32 z m 31.11736,0.08 0.0826,-18.16 3.84,-0.0778 3.84,-0.0778 5.76,9.10719 5.76,9.10719 0.0849,-9.11841 0.0849,-9.11842 4.39507,0.089 4.39508,0.089 0.0827,18.16 0.0826,18.16 h -3.9702 -3.97021 l -5.71244,-8.9905 -5.71244,-8.9905 -0.085,8.9905 -0.085,8.9905 h -4.47766 -4.47766 z M 77.600003,532.47484 C 62.427456,531.14175 50.0408,527.21877 40.480001,520.71855 l -3.2,-2.17562 -0.08258,-18.63378 -0.08258,-18.63377 20.997578,0.0823 20.997579,0.0823 0.110478,6.35933 c 0.156494,9.00798 0.557791,10.62607 3.215533,12.96551 7.024509,6.18322 15.248268,-0.46512 13.927872,-11.25973 C 95.274873,480.60214 92.297124,478.34072 76.459307,474.38876 51.90825,468.26261 42.60743,462.57001 38.114611,450.91974 32.36183,436.00228 35.467998,408.3364 43.449455,403.40358 c 0.128451,-0.0794 0.236199,2.32633 0.239439,5.34603 0.03212,29.92901 30.191791,54.11926 71.292386,57.18168 5.53477,0.4124 8.53872,0.23145 8.53872,-0.51433 0,-0.58945 1.2374,-0.59302 1.89481,-0.005 0.43319,0.38715 0.91568,0.38877 3.38519,0.0113 1.584,-0.24209 3.16286,-0.44527 3.50858,-0.45151 0.99631,-0.018 -0.13527,-0.98401 -1.47318,-1.25764 -1.38767,-0.28381 -1.48135,-1.17656 -0.1154,-1.09966 4.83193,0.27203 6.49109,2.77639 8.30132,12.53015 7.27575,39.20273 -16.38494,61.28762 -61.421317,57.33066 z m 64.800007,-14.70827 v -12.15341 l 1.40375,-1.29393 c 0.77206,-0.71167 1.74406,-2.04663 2.16,-2.96659 l 0.75625,-1.67266 v -38.56 -38.56 l -0.75625,-1.67265 c -0.41594,-0.91996 -1.38964,-2.2565 -2.16379,-2.97009 l -1.40755,-1.29743 0.0838,-12.22991 0.0838,-12.22991 13.82711,-0.0703 c 9.33732,-0.0475 13.89417,0.0382 14.03364,0.26387 0.11359,0.1838 0.61274,2.15943 1.10923,4.3903 3.11529,13.99808 9.81534,28.97917 17.24648,38.56256 l 1.94354,2.50643 v 4.13357 4.13356 l 3.12,0.0197 3.12,0.0197 3.04,3.69687 c 3.04341,3.70101 12.60683,13.60627 16.09447,16.66976 l 1.85448,1.62894 -0.0945,2.34253 -0.0945,2.34253 -13.52,0.0835 -13.52,0.0835 v 13.96361 13.96361 l 3.76,-0.18634 c 9.76609,-0.484 11.58924,-3.0225 11.59737,-16.14783 l 0.003,-4.24 13.52,-0.0324 c 16.27499,-0.039 15.43444,-0.0796 16.85234,0.81258 0.63121,0.39716 2.98366,1.69249 5.22766,2.87851 l 4.08,2.15641 v 21.89246 21.89246 h -51.68 -51.68 z m 108.48,0.17428 v -11.97913 l 1.70359,-1.70359 c 2.17347,-2.17347 2.77296,-3.83541 3.0077,-8.33815 0.0986,-1.892 0.24945,-3.44 0.33515,-3.44 0.0857,0 2.19138,0.78364 4.67932,1.74141 8.04418,3.09676 17.62082,6.21154 27.46894,8.93421 2.24109,0.61958 4.43256,1.38703 4.86995,1.70544 l 0.79524,0.57894 0.0101,12.24 0.0101,12.24 h -21.44 -21.44 z m 62.07864,7.09913 c -1.10987,-2.684 -3.415,-8.264 -5.1225,-12.4 -7.01549,-16.9933 -12.35475,-29.89678 -14.39972,-34.8 -1.19999,-2.87722 -2.00518,-5.20262 -1.80258,-5.20587 0.20139,-0.003 1.98161,0.38532 3.95604,0.86345 1.97443,0.47814 3.64542,0.80478 3.71332,0.72588 0.11018,-0.12805 6.63984,-26.2868 6.73715,-26.99001 0.034,-0.2456 -10.18151,-3.03994 -11.20372,-3.06466 -0.19985,-0.005 -0.75633,1.57521 -1.23663,3.51121 -0.4803,1.936 -1.03678,3.51829 -1.23663,3.5162 -1.09104,-0.0114 -4.83583,-1.34156 -6.86555,-2.43866 -0.0562,-0.0304 0.0682,-0.62401 0.27651,-1.31919 0.28667,-0.95682 0.28915,-1.43128 0.0102,-1.95249 -0.33851,-0.63252 -0.19605,-1.8282 0.44997,-3.77654 0.0866,-0.26114 1.19028,-0.10063 3.73446,0.54307 1.98635,0.50257 3.64184,0.88347 3.67887,0.84644 0.29435,-0.29435 2.86202,-11.46149 2.66356,-11.58414 -0.63524,-0.3926 -27.05268,-6.81159 -27.22514,-6.61525 -0.234,0.2664 -2.93443,11.29445 -2.78868,11.38845 0.0563,0.0363 1.18242,0.32603 2.50242,0.64377 1.32,0.31775 2.9179,0.70571 3.5509,0.86214 l 1.15089,0.28443 -0.44952,1.76496 c -0.25545,1.00299 -0.80134,2.11679 -1.26443,2.57988 -0.59209,0.59209 -0.77866,1.06184 -0.68236,1.71801 0.12772,0.87021 0.0989,0.89138 -0.79157,0.58096 -0.50826,-0.17718 -1.57324,-0.23318 -2.3666,-0.12443 -1.30911,0.17943 -4.26731,-0.28646 -4.26731,-0.67207 0,-0.0872 0.37064,-1.66744 0.82364,-3.51171 0.9867,-4.01709 1.39946,-3.52588 -4.1267,-4.91102 l -4.53694,-1.13719 -0.19802,-5.74281 c -0.24074,-6.98162 -0.58088,-8.16345 -3.06423,-10.64679 l -1.70942,-1.70942 0.0858,-7.30811 0.0858,-7.3081 4.27395,2.34771 c 11.02182,6.05438 34.91159,13.84214 50.16497,16.35316 l 3.23892,0.53319 2.80138,7.23778 c 1.54076,3.98077 3.30087,8.53377 3.91136,10.11777 0.6105,1.584 1.55373,4.01387 2.09607,5.3997 l 0.98608,2.5197 -2.05637,1.96622 c -1.131,1.08142 -3.9611,3.76356 -6.28912,5.9603 l -4.23276,3.99408 2.76808,10.24 c 1.52244,5.632 2.81264,10.29746 2.86712,10.36769 0.0545,0.0702 3.05345,-0.78189 6.6644,-1.89361 3.61094,-1.11173 6.62577,-1.96089 6.69963,-1.88704 0.74875,0.74875 0.51826,1.90747 -0.33505,1.68432 -2.34657,-0.61366 -2.40362,-0.56327 -3.26246,2.88199 -0.89729,3.59953 -0.96979,3.44532 1.90665,4.05574 2.2128,0.46959 2.24229,0.54859 0.67715,1.81397 -0.66,0.5336 -3.288,2.6559 -5.84,4.71623 -2.552,2.06033 -4.67765,3.84879 -4.72366,3.97436 -0.046,0.12557 1.40682,0.59451 3.22853,1.04208 l 3.31218,0.81376 1.81148,-1.38424 c 2.22662,-1.70148 2.23212,-1.82061 -0.14799,3.20358 l -1.95947,4.13624 1.53161,4.03746 c 0.84239,2.22061 1.73096,4.51714 1.9746,5.10341 l 0.44299,1.06595 1.66487,-1.39508 c 0.91567,-0.76729 2.85286,-2.38547 4.30486,-3.59595 l 2.64,-2.20087 0.0398,-2.58999 c 0.0219,-1.4245 0.12986,-3.598 0.24,-4.83 l 0.20025,-2.24 0.90827,2.26383 0.90826,2.26383 2.93174,0.70132 c 1.61245,0.38573 3.02228,0.69901 3.13295,0.69617 0.11068,-0.003 -1.07573,-3.28115 -2.63645,-7.28515 -1.56071,-4.004 -2.83926,-7.30164 -2.84122,-7.32809 -0.002,-0.0265 1.03496,0.21904 2.30425,0.54553 1.2693,0.32649 2.32757,0.56414 2.35173,0.52809 0.25286,-0.3772 1.61594,-6.66292 1.46409,-6.75149 -0.11199,-0.0653 -0.67162,-0.21915 -1.24362,-0.34183 -1.21163,-0.25987 -1.28114,-0.49479 -0.38606,-1.30482 0.64652,-0.5851 0.70973,-0.53611 5.57164,4.31821 l 4.91769,4.91002 2.54235,-2.68781 c 1.39829,-1.47829 2.9185,-3.11981 3.37825,-3.64781 l 0.83591,-0.96 0.0101,24.4 0.0101,24.4 h -20.9117 -20.91171 z m 9.98419,-19.59161 -1.3298,-3.3674 2.53563,-5.47597 c 3.01673,-6.51496 2.44872,-5.84817 4.5333,-5.32175 2.09498,0.52904 2.02198,0.21265 1.71583,7.43673 l -0.23054,5.44 -2.68958,2.24 c -1.47928,1.232 -2.80557,2.27955 -2.94732,2.3279 -0.14174,0.0483 -0.85613,-1.42744 -1.58752,-3.27951 z m 13.49719,-7.10898 c -0.52796,-0.1036 -1.05776,-1.02523 -2.3697,-4.12228 l -1.68973,-3.98884 0.42331,-1.76454 c 0.23282,-0.9705 0.5258,-1.65186 0.65107,-1.51415 0.50915,0.55975 4.34877,11.60715 4.02015,11.56682 -0.19532,-0.024 -0.66111,-0.10362 -1.0351,-0.17701 z m -54.84002,-3.61192 c -8.02696,-1.34804 -14.32766,-2.78855 -22,-5.02979 l -3.92,-1.14511 v -12.46172 -12.46172 l 1.04,0.2314 c 1.97327,0.43905 1.90945,0.51217 2.81115,-3.22055 l 0.85032,-3.52 1.08235,0.11026 c 0.59529,0.0606 2.0026,0.45664 3.12736,0.88 1.12476,0.42336 2.38787,0.76974 2.80692,0.76974 0.85035,0 0.90677,0.26549 0.42507,2 -0.18329,0.66 -0.53572,1.2 -0.78317,1.2 -0.74295,0 -1.43968,3.04011 -0.74946,3.27018 0.23759,0.0792 0.29019,0.44365 0.1466,1.01576 -0.12648,0.50394 -0.39219,0.8296 -0.61054,0.74829 -1.2475,-0.46456 -6.64359,-1.60391 -6.80967,-1.43782 -0.19415,0.19415 -3.04006,11.22417 -2.91847,11.31126 0.25962,0.18596 27.2586,6.80194 27.35687,6.70367 0.18029,-0.18029 2.99103,-11.43572 2.87808,-11.52511 -0.0514,-0.0407 -1.71341,-0.47119 -3.69341,-0.95672 -1.98,-0.48552 -3.6,-0.92891 -3.6,-0.98531 0,-0.52102 0.70171,-1.74383 0.92241,-1.60743 0.41956,0.25931 1.09195,-2.67749 0.71658,-3.12979 -0.38901,-0.46873 0.24792,-3.41159 0.73492,-3.39564 0.19035,0.006 0.70609,0.21714 1.14609,0.46866 0.44,0.25153 1.20241,0.46243 1.69424,0.46866 1.46122,0.0185 5.02627,1.02018 5.01935,1.41025 -0.004,0.1986 -0.36065,1.72909 -0.79359,3.40109 -0.97266,3.75635 -0.97255,3.72731 -0.0148,3.9677 l 0.78524,0.19708 0.0218,11.83761 0.0218,11.83761 -1.20701,-0.0329 c -0.66385,-0.0181 -3.583,-0.43192 -6.487,-0.91962 z m 36.02847,-1.25224 c -0.50715,-0.19885 0.24389,-0.93081 4.4,-4.28825 2.75634,-2.22666 5.01073,-3.87264 5.00975,-3.65773 -0.008,1.66105 -0.80458,2.74223 -4.00329,5.43073 -3.29856,2.77243 -3.9626,3.08136 -5.40646,2.51525 z m 27.27362,-12.74332 -4.74594,-4.70808 -1.83807,1.79062 c -1.86555,1.81738 -2.6382,2.05137 -2.63792,0.79887 1.7e-4,-0.73984 -0.01,-0.73035 7.83984,-7.31663 2.64,-2.21504 6.6,-5.55164 8.8,-7.41465 4.87783,-4.13067 4.48455,-4.16225 4.45751,0.35794 -0.0196,3.28135 -0.5232,4.5726 -0.59502,1.52572 l -0.0225,-0.95428 -0.81153,1.19428 c -0.86401,1.2715 -1.20339,1.38568 -2.57202,0.86533 -1.14268,-0.43445 -1.35603,-0.15559 -0.55865,0.73021 1.08755,1.20816 1.13216,1.49 0.4186,2.64458 -0.74961,1.21289 -0.63228,1.30254 0.97262,0.74307 1.89565,-0.66083 3.18219,1.30236 3.17906,4.85109 l -0.002,2.72 -3.27284,3.45264 c -3.96895,4.18699 -2.94565,4.33919 -8.61075,-1.28071 z m -74.79995,-2.13504 c -6.80449,-1.7184 -11.71387,-3.11208 -11.79239,-3.34762 -1.28475,-3.85427 1.84661,-7.67975 5.52753,-6.75278 4.06297,1.02318 3.86433,1.06177 4.14428,-0.80509 0.28747,-1.91696 0.31284,-1.92299 4.09074,-0.97241 6.09068,1.53251 5.7652,1.40525 5.57914,2.18132 -0.0923,0.38483 -0.25916,1.20538 -0.3709,1.82344 l -0.20316,1.12375 3.16531,0.74275 c 4.35778,1.02258 4.11279,0.61129 2.97483,4.99402 -0.53764,2.07065 -0.97752,3.82128 -0.97752,3.89028 0,0.19163 0.25855,0.25293 -12.13786,-2.87766 z m 58.13852,-1.07652 c -0.38083,-0.0865 -0.78933,-0.88458 -1.28,-2.50071 -0.86509,-2.8494 -0.15392,-2.80512 -7.76066,-0.48322 -3.344,1.02074 -6.17553,1.76761 -6.29229,1.65972 -0.27205,-0.25137 -4.74771,-16.54023 -4.74771,-17.27895 0,-0.5022 9.81965,-10.19725 10.04356,-9.91612 0.25833,0.32435 11.0772,27.69178 11.07685,28.02003 -5.3e-4,0.49347 -0.34241,0.65763 -1.03975,0.49925 z M 317.48668,461.4841 c -0.0818,-1.13233 -0.006,-1.24537 1.20431,-1.79103 1.47793,-0.66645 1.45496,-0.97445 -0.0943,-1.2651 -1.00329,-0.18822 -1.11255,-0.32538 -1.3672,-1.71628 l -0.27678,-1.51171 -0.74929,1.21111 c -0.5055,0.81705 -0.92077,1.16037 -1.27633,1.05519 -0.28987,-0.0857 -0.9589,-0.25936 -1.48674,-0.38579 l -0.95969,-0.22989 0.90462,1.18602 0.90462,1.18602 -0.67793,1.149 c -0.82698,1.40163 -0.77793,1.46532 0.76405,0.99208 1.16996,-0.35908 1.26013,-0.33297 2.06372,0.59738 1.01019,1.16955 1.1609,1.10088 1.04698,-0.477 z m 29.87143,2.71511 8.9581,-8.83547 -5.07048,-15.22282 c -2.78877,-8.37256 -5.12778,-15.16554 -5.19781,-15.09552 -0.07,0.07 -2.72721,10.55545 -5.90486,23.30095 -5.61841,22.53533 -6.13342,24.35649 -6.56773,23.22471 -0.15212,-0.39642 10.06262,-42.45556 11.2764,-46.43054 0.29481,-0.96546 -1.28786,0.49159 -19.19643,17.67273 -1.90559,1.82819 -3.51574,3.27295 -3.5781,3.21059 -0.0624,-0.0624 -0.15925,-5.36961 -0.21529,-11.79388 l -0.1019,-11.68048 2.24,0.22547 c 1.232,0.12401 3.75975,0.23437 5.61723,0.24525 l 3.37723,0.0198 1.04086,-1.07389 1.04086,-1.0739 -4.25809,-0.22416 c -2.34195,-0.12328 -5.58843,-0.35878 -7.2144,-0.52333 l -2.95631,-0.29918 -1.60369,-1.6638 -1.60369,-1.6638 v -9.41366 -9.41366 l -0.88,0.27469 c -0.484,0.15108 -4.372,0.24307 -8.64,0.20441 -4.268,-0.0387 -7.76245,0.0333 -7.76544,0.16 -0.003,0.12666 1.67437,4.58893 3.72745,9.91617 2.05309,5.32724 3.67553,9.74312 3.60544,9.81307 -0.18526,0.18488 -8.0422,-1.247 -13.24745,-2.41426 -14.04661,-3.1499 -29.15762,-8.60463 -39.6,-14.29468 l -3.76,-2.04883 v -2.34056 -2.34057 l -1.52,-0.17915 c -5.41739,-0.63853 -6.16,-0.62669 -6.16,0.0981 0,0.67591 -0.0142,0.6744 -1.19428,-0.12752 -0.67624,-0.45951 -1.64789,-0.81154 -2.24,-0.81154 -1.31332,0 -1.30319,0.5273 -0.24508,-12.75223 0.43965,-5.51773 0.79936,-10.27704 0.79936,-10.57624 0,-0.32732 0.57047,-0.82115 1.43225,-1.23984 3.96224,-1.925 4.31257,-3.42257 5.78094,-24.71168 0.82341,-11.93813 0.83191,-12.00444 1.64919,-12.86129 l 0.8215,-0.86129 1.51766,2.52514 c 3.50672,5.83464 9.38486,11.62912 14.55375,14.34662 l 1.60471,0.84367 -1.6,0.16357 c -3.85295,0.39391 -3.81161,5.82625 0.0499,6.55236 1.60572,0.30194 4.15018,-2.14095 3.63669,-3.49152 -0.15713,-0.4133 -0.21123,-0.82593 -0.1202,-0.91695 0.091,-0.091 0.005,-0.46583 -0.19169,-0.83291 -0.4428,-0.82738 -0.51638,-0.8313 2.33022,0.12427 4.89642,1.64368 13.22487,2.27105 16.76043,1.26255 0.64435,-0.1838 0.69274,-0.10841 0.55992,0.87229 -1.92744,14.23173 -1.43949,16.43349 3.64196,16.43349 9.83919,0 10.63779,-1.50254 12.06748,-22.70466 0.20175,-2.99202 0.28208,-3.27269 1.32802,-4.64 6.39672,-8.36219 7.2474,-26.40689 1.86004,-39.45534 -0.29595,-0.71681 0.38196,-0.74544 1.1519,-0.0486 0.77614,0.7024 1.24536,0.30835 1.24536,-1.04585 0,-1.13379 0.003,-1.13616 1.16289,-0.91857 1.04491,0.19603 1.1361,0.15906 0.89888,-0.36439 -0.2803,-0.61849 -0.27218,-2.6672 0.0153,-3.85767 0.10147,-0.4202 0.50635,-0.79887 0.98175,-0.91819 0.44499,-0.11168 0.7655,-0.29387 0.71224,-0.40487 -2.08591,-4.34776 -2.8043,-5.37642 -4.33759,-6.21095 l -1.58712,-0.86381 0.61513,-2.48353 c 1.3692,-5.52804 1.03104,-13.29689 -0.82386,-18.92724 l -0.77872,-2.36371 3.25056,0.21608 c 20.67329,1.37425 32.20764,7.9353 37.1816,21.1499 2.4812,6.59196 2.6674,12.30182 1.11662,34.24145 -0.34833,4.928 -0.99707,14.216 -1.44163,20.64 -1.79766,25.97634 -2.13576,29.21994 -3.5683,34.2325 -2.01198,7.0401 -6.52236,13.54952 -11.75957,16.97152 -1.07406,0.70178 -1.81003,1.28202 -1.6355,1.28942 0.17453,0.007 7.19333,0.002 15.59733,-0.0127 l 15.28,-0.0262 -0.0122,12.25272 -0.0122,12.25272 -1.60135,1.71706 c -1.20823,1.29554 -1.9319,1.79092 -2.9478,2.01791 -2.95335,0.65988 -3.51005,1.88633 -0.87275,1.92273 l 1.36281,0.0188 -0.19825,1.44641 c -0.10904,0.79552 -0.20334,8.80631 -0.20955,17.80175 l -0.0113,16.35533 -8.1667,6.88 c -11.30996,9.52803 -11.34667,9.51511 -1.25262,-0.44077 z m -11.13166,8.22827 c -0.19034,-0.30798 9.74561,-40.72887 10.01356,-40.73662 0.088,-0.003 1.92661,5.21104 4.08579,11.58575 l 3.92579,11.59038 -8.92383,8.92383 c -4.90811,4.90811 -9.0037,8.7946 -9.10131,8.63666 z m -42.1407,-1.14309 c -4.42227,-1.11566 -4.26011,-0.89578 -3.33053,-4.51594 1.00148,-3.90019 0.99856,-3.92808 -0.43521,-4.16476 -3.25618,-0.53752 -3.5431,-0.72375 -3.18457,-2.06699 0.24976,-0.93573 0.2114,-1.55193 -0.16545,-2.65794 -0.48652,-1.42786 -0.48306,-1.44893 0.4169,-2.53929 0.49912,-0.60472 1.07473,-1.49549 1.27913,-1.97949 0.43138,-1.02146 0.44608,-1.02326 3.14941,-0.38605 2.46412,0.58082 2.28177,0.78142 3.24844,-3.57368 0.40534,-1.82615 0.85008,-3.32027 0.98832,-3.32027 0.33445,0 7.71239,1.89178 7.7903,1.99752 0.0662,0.0899 -5.71215,23.22338 -5.94187,23.78816 -0.0933,0.22941 -1.37642,0.0339 -3.81487,-0.58127 z m 36.62733,-0.64441 c -0.0808,-0.22 -1.71023,-5.61451 -3.62104,-11.98781 l -3.47421,-11.58782 1.36045,-1.21218 c 1.77395,-1.58063 9.73435,-9.03745 13.48474,-12.6317 1.61866,-1.55127 3.00512,-2.82049 3.08103,-2.82049 0.11688,0 -8.72943,35.91576 -9.71436,39.44 -0.33454,1.19703 -0.83835,1.55799 -1.11661,0.8 z m -5.38674,-8.85252 -3.43449,-8.59835 0.0941,-2.48455 0.0941,-2.48454 3.41888,11.00444 c 1.88038,6.05244 3.38356,11.03975 3.34041,11.0829 -0.0431,0.0431 -1.62398,-3.7908 -3.51296,-8.5199 z m -205.45358,2.63715 c -0.94226,-1.01619 -0.77744,-1.52044 0.40036,-1.22483 1.62608,0.40812 2.08004,1.18587 1.02252,1.75184 -0.50966,0.27276 -0.77108,0.17593 -1.42288,-0.52701 z m 93.35304,-2.40214 c -4.63513,-4.11769 -15.14579,-15.04886 -15.14579,-15.75172 0,-0.10492 3.888,-0.19077 8.64,-0.19077 h 8.64 v 8.8 c 0,4.84 -0.0604,8.8 -0.13421,8.8 -0.0738,0 -0.97382,-0.74588 -2,-1.65751 z m 65.22687,0.66962 c -0.555,-1.47196 -0.71554,-2.7345 -0.44181,-3.47447 l 0.27508,-0.7436 0.72529,0.92205 c 0.59001,0.75009 0.68712,1.16097 0.52065,2.20299 -0.26342,1.64894 -0.70209,2.09323 -1.07921,1.09303 z m -22.21266,-0.83269 c -0.59095,-0.15443 -0.90885,-25.69088 -0.32,-25.70529 0.132,-0.003 1.83808,0.38109 3.7913,0.85405 l 3.5513,0.85992 -0.92902,3.67611 c -1.05261,4.16516 -1.13177,3.95975 1.74409,4.52554 l 1.90519,0.37483 -0.20006,1.06645 c -0.11004,0.58655 -0.0661,1.66272 0.0977,2.3915 0.27382,1.2187 0.21006,1.45531 -0.79452,2.94809 -0.60072,0.89268 -1.17842,1.96648 -1.28377,2.38622 -0.10535,0.41974 -0.21193,0.76145 -0.23685,0.75936 -0.0249,-0.002 -0.83731,-0.21638 -1.80531,-0.4762 -2.85197,-0.7655 -2.70599,-0.88609 -3.68,3.04 -0.4803,1.936 -0.96478,3.5033 -1.07663,3.48288 -0.11186,-0.0204 -0.45537,-0.10297 -0.76337,-0.18346 z M 123.36,461.43998 c -0.352,-0.15126 -1.21995,-0.28514 -1.92879,-0.29751 -1.42657,-0.0249 -2.71121,-0.74599 -2.71121,-1.52186 0,-0.78107 3.06201,-0.27035 4.56,0.76057 1.60065,1.10157 1.64834,1.73274 0.08,1.0588 z m 146.53887,-1.43756 c 0.30007,-1.60239 0.2749,-1.56574 1.62012,-2.35943 1.35737,-0.80087 1.39273,-0.59526 0.21567,1.25434 -1.45739,2.29013 -2.13398,2.69742 -1.83579,1.10509 z M 122,457.67857 c -1.43306,-0.5872 -2,-0.98662 -2,-1.40904 0,-0.32425 -0.0365,-0.58955 -0.081,-0.58955 -0.0446,0 -1.05022,0.27717 -2.2348,0.61593 -30.828009,8.81602 -64.213232,-9.0315 -72.084586,-38.53593 -1.836996,-6.88566 -0.333164,-18.08 2.428844,-18.08 0.341202,0 0.611554,-0.22108 0.611554,-0.50011 0,-0.28936 0.235986,-0.47091 0.56,-0.43082 0.308,0.0381 0.776,-0.0126 1.04,-0.1126 1.955357,-0.741 2.931474,-0.55182 4.116201,0.79775 8.845741,10.0765 14.279954,14.7284 22.9238,19.6237 2.112,1.1961 3.899117,2.2205 3.971371,2.27644 0.07225,0.0559 -0.09097,0.3546 -0.362716,0.66368 -1.533857,1.74457 -2.008655,3.35239 -2.008655,6.80196 0,7.47129 3.06763,9.71548 19.2,14.04622 9.611897,2.58032 17.776627,5.46866 23.199997,8.20722 4.14852,2.0948 4.17882,2.12902 2.68313,3.02938 -0.68372,0.41158 -1.29965,0.79184 -1.36873,0.84502 -0.0691,0.0532 0.0489,0.30692 0.26212,0.56386 0.528,0.6362 2.2384,0.98138 2.67911,0.54067 0.54353,-0.54352 0.80778,-0.43002 1.32428,0.56878 1.02932,1.99048 -1.34628,2.51715 -4.85991,1.07744 z m 155.74958,-14.53246 c -0.6059,-0.50583 -1.57143,-1.08957 -2.14561,-1.29719 -0.57418,-0.20763 -1.04225,-0.45658 -1.04016,-0.55322 0.002,-0.0966 0.21638,-0.96772 0.4762,-1.93572 0.74282,-2.76747 0.85153,-2.63471 -2.85303,-3.48434 -1.83298,-0.42038 -3.48127,-0.85617 -3.66288,-0.9684 -0.26787,-0.16556 1.3044,-7.56241 1.68927,-7.94728 0.13072,-0.13072 23.68047,5.74065 23.91599,5.96267 0.15061,0.14198 -1.48844,7.39943 -1.79329,7.94043 -0.0195,0.0347 -1.6499,-0.34538 -3.623,-0.84459 l -3.58746,-0.90767 -0.30126,1.16459 c -0.16569,0.64053 -0.45141,1.74059 -0.63494,2.44459 l -0.33368,1.28 -2.50225,0.0329 c -2.31083,0.0304 -2.58653,-0.0374 -3.6039,-0.88678 z m -74.27731,-9.78613 c -0.19833,-9.46895 -2.71346,-11.89632 -12.3452,-11.91444 l -2.95294,-0.006 -0.0871,6 -0.0871,6 -1.55693,-2.38706 c -7.19852,-11.03668 -16.5389,-34.89451 -15.11449,-38.60645 0.17198,-0.44819 2.28583,-0.4893 20.23114,-0.39348 11.0215,0.0588 19.62536,0.007 19.11969,-0.11504 -0.50568,-0.12212 -7.75941,-0.7469 -16.11941,-1.38841 -8.36,-0.64151 -15.2576,-1.22319 -15.328,-1.29263 -0.45806,-0.45181 1.58707,-23.67869 2.11818,-24.05652 3.69308,-2.6272 4.31358,-4.4579 5.05107,-14.90233 5.16246,-73.11163 5.01804,-66.85454 1.62613,-70.45101 l -1.19835,-1.27063 0.83216,-11.66823 c 0.98237,-13.77437 0.0302,-12.07412 6.5091,-11.62279 2.94234,0.20496 13.98971,0.96466 24.54971,1.68821 22.88097,1.56776 20.64136,1.24731 20.63475,2.95248 -0.0193,4.98066 -1.58384,22.44235 -2.03334,22.6939 -3.74057,2.09333 -4.41323,4.32889 -5.32575,17.7 -1.02361,14.99877 -2.14529,30.94173 -3.07312,43.68 -1.40421,19.27828 -1.28283,20.99971 1.6963,24.05758 l 1.14726,1.17758 -0.68991,9.54242 c -0.37945,5.24833 -0.77742,10.37042 -0.88438,11.38242 l -0.19448,1.84 2.36134,0.005 c 2.58039,0.006 2.14863,-0.18074 7.76707,3.35473 l 3.0512,1.92 0.0115,20.72 0.0115,20.72 H 223.39213 203.5844 Z m -107.911549,-0.8 c -0.119251,-2.156 -0.34924,-4.49195 -0.511086,-5.19101 -0.368814,-1.59301 -0.749818,-1.53768 3.391484,-0.49249 5.868861,1.4812 15.041371,2.35625 15.749901,1.50253 0.28367,-0.3418 -0.47627,-0.49205 -4.04082,-0.79891 -4.67822,-0.40273 -8.06695,-0.93167 -12.710197,-1.98391 l -2.88,-0.65266 -0.586019,-1.41804 C 92.385148,419.68083 87.555071,418.09 83.524886,420.08398 l -1.373369,0.67949 -2.115757,-1.07453 c -11.491918,-5.8364 -27.764503,-20.98001 -24.627448,-22.91881 0.194564,-0.12025 1.131395,0.12528 2.081846,0.54561 2.020808,0.8937 2.246828,0.93127 1.709844,0.28424 -0.2191,-0.264 -0.646414,-0.48 -0.949586,-0.48 -1.519345,0 -2.083136,-2.22178 -0.649663,-2.56017 0.499989,-0.11803 0.797738,-0.41274 0.79832,-0.79015 0.0018,-1.15718 1.715688,-1.24819 3.434709,-0.18239 2.424488,1.50319 7.075736,1.32771 8.084814,-0.30501 0.508738,-0.82315 1.956735,-0.30929 3.14957,1.11772 1.370841,1.63997 2.064398,1.89662 1.340054,0.4959 -1.053104,-2.03648 -0.49835,-2.91632 1.138327,-1.80538 4.399599,2.98635 6.632568,4.26489 7.025026,4.02233 0.303108,-0.18733 -0.110117,-0.50602 -1.390124,-1.0721 -1.253935,-0.55455 -1.819257,-0.98549 -1.814418,-1.38314 0.0066,-0.54045 1.127576,-3.30174 1.337326,-3.29414 0.0526,0.002 0.802532,0.2179 1.666504,0.48 2.136155,0.64802 3.672622,0.59903 5.951958,-0.18978 3.262751,-1.12914 7.641033,-0.84989 8.26856,0.52739 0.195197,0.42841 0.50531,0.77892 0.689141,0.77892 0.183831,0 0.09932,-0.35853 -0.187807,-0.79674 -0.590123,-0.90064 -0.586206,-0.90379 1.751993,-1.41075 1.006159,-0.21815 2.095644,-0.1758 3.840004,0.14927 4.19403,0.7816 3.86781,0.57729 3.67319,2.30047 -0.20397,1.80599 0.47434,3.66203 1.61035,4.40637 0.4207,0.27566 0.83846,0.78248 0.92837,1.12629 0.11012,0.4211 0.43931,0.62509 1.00871,0.62509 0.49054,0 1.15636,0.33572 1.58665,0.8 0.43422,0.46854 1.09549,0.8 1.59598,0.8 0.47001,0 1.21689,0.23741 1.65973,0.52757 0.60625,0.39723 0.89599,0.43676 1.17275,0.16 0.43774,-0.43774 2.13013,-0.47762 2.78145,-0.0655 0.33343,0.21096 0.55804,0.0983 0.80758,-0.4049 0.25489,-0.51403 0.72192,-0.73916 1.77811,-0.85714 1.11259,-0.12427 1.41266,-0.27965 1.34393,-0.6959 -0.0487,-0.29475 0.20939,-0.74455 0.57348,-0.99957 0.36408,-0.25501 0.63885,-0.58986 0.6106,-0.74409 -0.0283,-0.15424 -0.0343,-0.40048 -0.0135,-0.5472 0.048,-0.33806 6.70516,3.14763 9.65103,5.0533 l 2.22686,1.44055 v 10.68646 10.68645 l -0.88,0.18965 c -0.484,0.10431 -2.536,0.54536 -4.56,0.98012 -2.024,0.43475 -5.696,1.02283 -8.16,1.30684 -2.464,0.284 -4.6168,0.65295 -4.784,0.81988 -0.89416,0.89273 11.53619,-0.60717 17.55855,-2.11869 L 135.68,426.1706 v 5.15469 5.15469 H 115.72877 95.777541 Z M 121.28,387.83145 c -6.31645,-0.58194 -13.10333,-1.75465 -16.8555,-2.91246 l -1.9755,-0.60959 0.75064,-2.79471 c 2.66446,-9.91997 7.66362,-18.97207 14.76003,-26.72635 l 1.63967,-1.79167 0.60033,1.33192 c 2.65225,5.88442 11.04807,6.43048 13.86389,0.90169 1.37324,-2.69632 2.56315,-11.57689 2.57398,-19.21016 l 0.002,-1.73987 -0.91519,0.87682 c -0.69217,0.66313 -1.14057,0.8401 -1.84,0.72618 -0.50864,-0.0828 -1.70205,-0.16248 -2.65201,-0.17695 l -1.72721,-0.0263 0.18739,-2.64 c 0.10307,-1.452 0.51433,-7.37353 0.9139,-13.15895 l 0.7265,-10.51895 3.05331,0.20736 c 5.2296,0.35514 16.52261,1.1378 23.37332,1.61988 3.608,0.25389 8.936,0.61753 11.84,0.80808 2.904,0.19054 5.92239,0.42646 6.70754,0.52425 l 1.42755,0.1778 -2.70755,0.87798 c -12.81093,4.15423 -33.8771,15.57599 -34.16782,18.52528 -0.12938,1.31249 -0.23134,1.3443 3.04812,-0.95076 9.89344,-6.9237 24.35089,-14.27535 33.29422,-16.93018 1.7475,-0.51875 1.66456,-0.73673 1.34627,3.53821 -0.2775,3.72701 -0.54399,7.54545 -2.23323,32 -1.31257,19.0016 -1.17352,17.82512 -2.13518,18.06648 -0.52285,0.13123 -1.17413,-0.0195 -1.87732,-0.43435 l -1.07672,-0.63528 -0.8361,0.99365 c -0.66556,0.79097 -1.2036,1.05128 -2.63775,1.27617 -2.06801,0.3243 -2.72369,0.74044 -2.46263,1.56296 0.24356,0.76738 -1.76669,2.10607 -3.59683,2.39524 -1.30245,0.2058 -1.32606,0.2303 -0.70726,0.73401 0.93398,0.76028 0.32817,2.07748 -1.82339,3.96455 l -1.73695,1.52344 0.82707,0.37684 c 0.9198,0.41909 0.88348,1.49987 -0.0866,2.57629 -0.46011,0.51055 -0.4589,0.56 0.0137,0.56 0.96425,0 1.29001,1.19655 0.46627,1.71264 -4.0595,2.5434 -25.49091,4.49283 -37.36542,3.39882 z M 97.904369,382.6028 C 92.029925,380.02409 87.477382,376.43701 84.3966,371.95963 l -0.883404,-1.28387 0.323431,-4.13789 c 0.177886,-2.27583 0.412395,-4.80636 0.521131,-5.62338 l 0.197701,-1.4855 -1.244274,-0.21022 c -2.109476,-0.35639 -2.239339,-0.62929 -0.788206,-1.65633 0.716848,-0.50735 1.306434,-1.092 1.310192,-1.29923 0.0038,-0.20722 0.383169,-0.6728 0.843136,-1.03461 2.113472,-1.66246 -3.039668,-3.04775 -6.457912,-1.73604 -0.325617,0.12495 -0.458392,-0.0657 -0.458392,-0.65834 0,-0.65374 0.15701,-0.83423 0.725717,-0.83423 0.848905,0 3.007013,-1.3888 3.888011,-2.50204 0.696513,-0.88013 2.344793,-1.65796 3.513307,-1.65796 0.703542,0 0.826185,-0.19636 1.149242,-1.84 2.661502,-13.54112 8.141029,-28.39866 14.34274,-38.88982 2.04775,-3.4641 2.0847,-3.24165 -0.49902,-3.00432 -2.367251,0.21744 -3.279997,0.87171 -3.279997,2.35115 0,0.84816 0.06781,0.84957 -2.56,-0.0532 -1.798075,-0.61772 -1.401982,-3.35522 0.667577,-4.61379 3.40186,-2.06879 10.5171,-2.57617 9.32346,-0.66484 -0.95979,1.53686 0.0934,0.34912 2.91493,-3.28739 4.36478,-5.62549 17.81403,-18.5262 17.81403,-17.08748 0,0.0728 -0.35033,0.90576 -0.77851,1.85103 -0.42818,0.94527 -0.93077,2.58267 -1.11686,3.63867 -0.33084,1.87735 -4.50463,60.33162 -4.50463,63.08761 0,1.29821 -0.17387,1.58224 -2.50556,4.09286 -5.89649,6.34899 -15.41444,24.72857 -15.41444,29.76595 0,0.73475 -0.85316,0.59392 -3.535631,-0.58361 z M 50.240002,358.55302 c -17.29865,-3.5498 -24.255438,-22.5768 -13.326826,-36.44923 0.728791,-0.92511 0.873663,-1.29486 0.549654,-1.40286 -17.299119,-5.76637 -16.812296,-33.98445 0.686938,-39.81753 0.159478,-0.0532 -0.08752,-1.38967 -0.548875,-2.97003 -2.30116,-7.88249 -1.535814,-15.50908 1.975086,-19.68155 l 0.800914,-0.95183 -2.188446,-7.8e-4 C 9.4839712,257.26902 2.7684845,248.90603 1.4437933,211.51999 1.1725199,203.86399 0.80984934,193.66859 0.63785865,188.86355 -0.22034876,164.88712 -0.16966144,162.87793 1.4456948,156.84187 5.8444032,140.40533 20.25895,132.79999 47.012769,132.79999 c 7.493601,0 6.753445,-0.35343 10.051977,4.79993 l 2.824744,4.41315 3.33959,1.52775 c 2.494478,1.14114 3.304019,1.65572 3.199028,2.03346 -1.215808,4.37421 -1.353586,16.38372 -0.260948,22.74571 2.808649,16.35365 8.902492,27.88449 22.23852,42.08 l 2.104377,2.24 0.2303,2.4 c 1.725822,17.98514 -3.920018,30.86454 -16.009883,36.52207 -2.499039,1.16945 -2.456716,0.88709 -0.465665,3.10665 4.042414,4.50635 6.213168,10.10648 8.144515,21.01128 0.223355,1.26111 0.239755,1.23278 1.111389,-1.92 2.50123,-9.04717 5.932276,-14.10649 12.55483,-18.51299 4.854247,-3.2299 13.602487,-6.28701 17.990967,-6.28701 1.34534,0 0.92066,-0.554 -0.86651,-1.13037 -6.64563,-2.14322 -12.78977,-10.47311 -14.980392,-20.30963 -1.017784,-4.57013 -1.157444,-4.4976 3.140392,-1.63084 15.297,10.20349 38.47911,17.93368 61.97007,20.66422 2.27153,0.26404 4.1821,0.53212 4.2457,0.59572 0.51373,0.51373 -8.36204,3.98974 -12.03037,4.71143 -2.4336,0.47879 -2.50705,0.41716 2.44089,2.04791 4.26175,1.40459 7.56389,2.72806 7.34723,2.94471 -0.0693,0.0693 -1.83766,0.41384 -3.92974,0.76569 -11.34573,1.90814 -29.95036,8.46289 -43.96378,15.48922 -13.25892,6.64803 -27.453116,16.21539 -26.722637,18.01194 0.08945,0.22 0.237487,0.58327 0.328967,0.80727 0.269936,0.66096 -1.664591,1.61308 -2.811455,1.3837 -1.189242,-0.23785 -6.687693,4.79324 -8.35958,7.64903 -1.222959,2.08896 -2.936001,4.39095 -4.83374,6.49559 l -1.528904,1.6956 -0.884246,-1.0556 -0.884246,-1.05559 0.173268,1.55309 c 0.122673,1.09958 0.04923,1.62974 -0.251501,1.81561 -1.044671,0.64564 1.72739,2.39783 3.260708,2.06106 1.193404,-0.26212 2.190533,-1.80186 2.192173,-3.3851 6.57e-4,-0.63543 0.09277,-1.82343 0.204691,-2.64 l 0.203496,-1.48466 2.276505,0.004 c 1.252077,0.002 2.816504,0.0928 3.476504,0.20187 l 1.2,0.19835 v 2.51082 c 0,1.89811 -0.195225,3.02949 -0.8,4.63623 -0.968574,2.57326 -0.968049,2.36921 -0.0061,2.36921 1.170161,0 1.493836,1.48833 0.498887,2.29399 -0.39803,0.3223 -0.916828,0.58601 -1.152882,0.58601 -0.236055,0 -1.408102,0.98114 -2.60455,2.18031 -4.535122,4.54546 -11.172501,4.15902 -18.655359,-1.08615 -0.792,-0.55516 -1.636654,-0.93891 -1.877009,-0.85277 -0.240355,0.0861 -0.548256,-0.0234 -0.684223,-0.24339 -0.321528,-0.52024 -0.982896,-0.11322 -0.759973,0.4677 0.09458,0.24648 -0.116524,0.59901 -0.472939,0.78976 -0.857378,0.45885 -1.005856,0.43607 -1.005856,-0.15435 0,-0.27438 -0.150992,-0.40556 -0.335539,-0.29151 -0.231225,0.14291 -0.224186,0.34155 0.02264,0.63896 0.280431,0.3379 0.143629,0.54253 -0.63021,0.9427 -0.884129,0.4572 -1.008276,0.4593 -1.17688,0.0199 -0.295052,-0.76889 -0.849726,-0.57514 -0.655038,0.22881 0.145654,0.60146 -0.106797,0.89122 -1.533403,1.76 -2.073836,1.26293 -1.952249,1.26007 -2.372051,0.0558 -0.28851,-0.82762 -0.458921,-0.94855 -1.071304,-0.76024 -0.999842,0.30745 -0.985437,0.2523 -0.419621,1.60649 0.278349,0.66618 0.394785,1.30786 0.258746,1.42595 -0.13604,0.11809 -1.19486,0.87977 -2.352934,1.69261 -14.762569,10.36171 -12.662984,28.45312 3.70559,31.92981 20.737002,4.40455 35.387112,-19.33454 16.224672,-26.29051 -3.82283,-1.38769 -3.956254,-1.47681 -3.123007,-2.0861 2.930232,-2.14263 10.776417,2.39238 12.502225,7.22617 4.32739,12.1205 -10.670382,24.69032 -25.76389,21.59303 z M 44.80178,323.75854 c -0.363001,-0.82063 -0.82215,-1.59226 -1.020332,-1.71474 -0.242844,-0.15009 -0.269802,-0.0762 -0.08268,0.22655 0.152709,0.24709 0.239179,0.81603 0.192157,1.26432 -0.09686,0.92336 1.317873,3.02953 1.477656,2.19985 0.05126,-0.26617 -0.203801,-1.15536 -0.566801,-1.97598 z m 2.233322,-0.63855 c -0.0071,-0.58334 -0.566394,-1.37537 -0.803627,-1.13814 -0.11183,0.11183 -0.04259,0.50366 0.153859,0.87073 0.403813,0.75453 0.657011,0.85873 0.649768,0.26741 z m 3.561192,-12.64966 c 2.870865,-1.30539 2.867583,-1.29441 1.15622,-3.86806 l -1.506094,-2.26496 -1.397323,0.94304 c -1.597032,1.07783 -4.168054,2.2397 -4.955625,2.23951 -0.293409,-8e-5 0.61853,-0.58069 2.02653,-1.29025 1.408,-0.70957 2.880308,-1.5576 3.271796,-1.88452 l 0.711796,-0.5944 -1.604959,-2.67535 c -0.882728,-1.47144 -2.271223,-4.00603 -3.085544,-5.63241 l -1.480585,-2.95706 -1.306252,1.06984 c -8.361636,6.84829 -1.398008,21.26525 8.17004,16.91462 z m -9.056293,-2.52894 c 0.231,-0.0924 0.507,-0.0811 0.613334,0.0253 0.106333,0.10634 -0.08267,0.18197 -0.42,0.16808 -0.372782,-0.0154 -0.448608,-0.0912 -0.193334,-0.19334 z m 29.009296,0.9386 c -0.603029,-1.44932 -1.429295,-2.4106 -1.429295,-1.66286 0,0.47117 1.483565,2.86286 1.775831,2.86286 0.08402,0 -0.07192,-0.54 -0.346536,-1.2 z m 3.354163,-4.4 c -1.11618,-3.43561 -1.903457,-4.35783 -1.903457,-2.22972 0,1.26429 0.713425,3.18686 1.508643,4.06557 0.881336,0.97386 1.051135,0.18431 0.394814,-1.83585 z m -2.42227,1.2 c -0.465133,-1.93984 -1.499942,-3.35812 -1.827451,-2.50465 -0.09533,0.24843 0.0428,0.53462 0.306953,0.63598 0.264154,0.10137 0.441648,0.43729 0.394431,0.74649 -0.09142,0.59867 0.671221,2.00218 1.087951,2.00218 0.137017,0 0.154169,-0.396 0.03812,-0.88 z m 4.998813,-2.76929 c 0,-0.22634 -0.288,-0.67216 -0.64,-0.99071 -0.352,-0.31856 -0.64,-0.8889 -0.64,-1.26743 0,-0.37853 -0.36,-1.17619 -0.8,-1.77257 -0.44,-0.59639 -0.8,-1.40787 -0.8,-1.80329 0,-0.92207 -0.456555,-1.20333 -0.962925,-0.59319 -0.257197,0.30991 -0.289459,0.61632 -0.09228,0.87648 0.166735,0.22 0.479029,1.01494 0.693985,1.76653 0.214956,0.75159 0.652792,1.53013 0.97297,1.73009 0.366383,0.22881 0.52088,0.59781 0.416852,0.99562 -0.110001,0.42064 0.08873,0.82368 0.594109,1.20489 0.796185,0.60056 1.257293,0.54686 1.257293,-0.14642 z m 0.891292,-4.07027 c 0.05425,-0.28171 -0.408767,-1.17695 -1.028935,-1.98941 -0.656496,-0.86006 -1.049516,-1.68063 -0.940731,-1.96412 0.119496,-0.3114 0.0015,-0.48691 -0.32739,-0.48691 -0.768691,0 -0.629917,1.11891 0.316064,2.54839 0.456666,0.69007 0.736167,1.40698 0.621115,1.59314 -0.115052,0.18616 -0.115262,0.49044 -4.65e-4,0.67619 0.301007,0.48704 1.244271,0.22543 1.360342,-0.37728 z m -11.997319,-1.11307 c 3.723838,-4.16036 3.359992,-9.00431 -0.718481,-9.56524 l -1.687871,-0.23214 0.192667,-1.165 c 0.105967,-0.64074 0.194252,-2.07829 0.196189,-3.19454 l 0.0035,-2.02954 7.477945,0.2277 7.477944,0.2277 0.188319,-1.39815 c 1.414176,-10.49944 -0.968039,-19.60986 -6.886586,-26.33668 l -1.107303,-1.25853 -5.975159,1.08423 c -6.635301,1.20401 -6.465361,1.12241 -4.650227,2.23282 7.316498,4.47589 7.7208,14.84838 0.928547,23.82219 -0.887414,1.17244 -1.61348,2.35356 -1.61348,2.62471 0,0.27116 -0.252,0.56275 -0.56,0.64798 -0.308,0.0852 -1.049047,0.81361 -1.646772,1.61863 l -1.086772,1.46367 0.760089,1.39141 c 0.995261,1.82191 1.109216,1.77178 1.574204,-0.69256 0.428286,-2.26983 1.158299,-3.33989 0.843576,-1.23653 -0.52705,3.52239 -0.571672,4.87431 -0.184895,5.6017 0.975558,1.83468 4.881601,7.65656 5.080292,7.57207 0.120646,-0.0513 0.748059,-0.68395 1.394252,-1.4059 z m 13.238448,-1.90737 c 0.05083,-0.165 -0.184393,-0.66 -0.522722,-1.1 -0.885139,-1.15113 -1.641665,-0.42483 -0.836873,0.80344 0.5232,0.7985 1.162032,0.93785 1.359595,0.29656 z m 2.287854,-1.17738 c -0.06404,-0.66256 -0.293549,-1.07396 -0.635189,-1.13863 -0.519924,-0.0984 -0.538768,0.2877 -0.08668,1.77601 0.259263,0.85351 0.818267,0.35993 0.721866,-0.63738 z m -3.780275,-1.36262 c 0,-0.264 -0.144,-0.48 -0.32,-0.48 -0.176,0 -0.32,0.216 -0.32,0.48 0,0.264 0.144,0.48 0.32,0.48 0.176,0 0.32,-0.216 0.32,-0.48 z m 1.6,-3.85889 c 0,-0.51505 -0.572659,-0.59533 -1.238393,-0.1736 -0.354222,0.2244 -0.324814,0.34128 0.153166,0.60877 0.684452,0.38304 1.085227,0.22233 1.085227,-0.43517 z m 1.978667,-1.49044 c -0.229621,-0.22962 -0.378667,-0.24852 -0.378667,-0.048 0,0.42713 0.378435,0.80556 0.592,0.592 0.09093,-0.0909 -0.0051,-0.33574 -0.213333,-0.544 z M 52.476985,273.83999 c 3.182048,-3.20385 3.123735,-4.75415 -0.357207,-9.4966 l -1.976949,-2.6934 -0.895705,1.00247 c -2.09349,2.34302 -1.779869,6.02356 0.92577,10.86448 0.914323,1.6359 0.989679,1.64647 2.304091,0.32305 z m 3.830481,-8.24 c 0.01963,-3.40613 -3.054137,-5.978 -5.236981,-4.38186 -0.529523,0.3872 -0.451298,0.55888 1.057075,2.32 0.895903,1.04602 2.023714,2.65212 2.506247,3.5691 1.066627,2.02697 1.656352,1.49588 1.673659,-1.50724 z m -6.867464,-34.84668 c 2.231401,-1.0331 3.423074,-2.7012 4.02438,-5.63332 0.147319,-0.71836 0.06527,-6.68577 -0.186996,-13.6 -0.247222,-6.776 -0.676356,-19.376 -0.953631,-28 -0.532133,-16.55073 -0.7604,-19.31326 -1.757317,-21.26738 -2.422144,-4.74779 -9.870798,-4.70456 -12.365489,0.0718 -0.970554,1.85822 -1.041139,3.85559 -0.590714,16.71561 0.246577,7.04 0.667951,19.208 0.936385,27.04 0.70697,20.62694 0.684753,20.43233 2.622511,22.97286 1.661414,2.17822 5.523797,2.97232 8.270871,1.70046 z M 279.41063,349.91379 c -14.323,-3.98613 -30.13062,-19.72797 -30.13062,-30.00525 v -1.91125 l 2.16,0.19367 c 15.89496,1.42513 28.03823,-1.15121 38.42672,-8.15269 l 2.34672,-1.5816 -0.19285,2.01166 c -0.10606,1.10641 -0.7744,10.43197 -1.48519,20.72347 -0.7108,10.2915 -1.36796,18.7875 -1.46035,18.88 -0.42127,0.42176 -8.02809,0.29739 -9.66443,-0.15801 z m 1.54142,-12.56301 c 0.94105,-0.76202 0.54018,-2.73114 -0.58946,-2.89547 -1.22969,-0.17889 -2.36616,0.78578 -1.92687,1.6356 0.94403,1.82629 1.48336,2.09632 2.51633,1.25987 z m -16.63204,-8.05209 c 0.616,-0.16375 1.73238,-0.4566 2.48086,-0.65078 0.83268,-0.21603 1.5622,-0.66036 1.87964,-1.14483 1.21581,-1.85556 -2.66625,-4.78144 -4.0405,-3.0453 -3.17484,4.01087 -3.27969,4.18061 -2.87986,4.66237 0.46058,0.55497 1.00181,0.59271 2.55986,0.17854 z m 10.94988,-4.11337 c -0.22766,-1.26473 -0.66279,-1.66533 -1.80888,-1.66533 -1.49489,0 -2.62733,1.56237 -2.0323,2.80385 0.93539,1.95164 4.22207,0.97747 3.84118,-1.13852 z m 12.09012,-3.74533 c 0,-0.53858 -0.0586,-0.56022 -0.77383,-0.28577 -0.71501,0.27438 -0.62913,0.76577 0.13383,0.76577 0.35556,0 0.64,-0.21334 0.64,-0.48 z M 77.440003,346.47248 c 0,-1.39327 0.06115,-1.48758 1.52,-2.34388 2.611424,-1.53283 7.559207,-2.22537 7.913939,-1.10771 0.646036,2.03548 -2.995798,4.4647 -7.113939,4.74522 l -2.32,0.15804 z m 227.972567,-8.87249 c 0.84003,-14.40355 1.54089,-22.25989 2.01881,-22.63 0.40436,-0.31315 0.42614,-0.48333 0.11052,-0.86363 -0.29713,-0.35802 -0.33604,-1.74671 -0.15941,-5.6892 0.26827,-5.98763 0.32067,-5.96059 2.04626,1.05583 2.8674,11.65917 1.47575,24.64627 -3.21973,30.047 l -0.97375,1.12 z M 78.400003,331.56121 v -1.55877 l 1.58927,-0.21083 c 1.122844,-0.14895 2.217231,-0.63191 3.728935,-1.64562 1.176815,-0.78914 2.164276,-1.39682 2.194357,-1.3504 0.03008,0.0464 0.368062,0.53863 0.751066,1.0938 1.29342,1.87482 0.988473,2.6706 -1.023395,2.6706 -2.00059,0 -3.713533,0.54042 -5.451718,1.71999 -1.667811,1.1318 -1.788515,1.0833 -1.788515,-0.71877 z m -50.026669,-1.21456 c -0.117333,-0.11733 -0.208954,-0.44133 -0.203602,-0.72 0.008,-0.41609 0.07044,-0.40227 0.349332,0.0773 0.344568,0.59254 0.244674,1.03307 -0.14573,0.64266 z m 50.645875,-5.67412 c -1.223376,-1.22338 1.397955,-3.27993 3.022128,-2.371 0.768178,0.42989 2.575964,-0.35615 3.638233,-1.58195 l 1.039566,-1.19959 0.798844,0.96 c 1.499546,1.80206 -0.39862,3.46224 -4.322252,3.78035 -1.317649,0.10682 -2.757484,0.28219 -3.199633,0.3897 -0.442149,0.1075 -0.881748,0.11763 -0.976886,0.0225 z m -47.125875,-1.04588 c -0.331958,-0.33195 -0.250827,-1.38666 0.106667,-1.38666 0.176,0 0.32,0.36 0.32,0.8 0,0.83778 -0.07392,0.93941 -0.426667,0.58666 z m 54.826669,-8.74666 c 0,-0.64 0.16,-0.96 0.48,-0.96 0.264,0 0.48,-0.15357 0.48,-0.34126 0,-0.62295 1.74669,-0.18002 1.870973,0.47446 0.140159,0.73807 -1.083295,1.76953 -2.110973,1.77968 -0.588248,0.006 -0.72,-0.16855 -0.72,-0.95288 z m 163.166527,-2.06015 c -0.15536,-0.15536 0.24529,-7.24389 0.52973,-9.3725 0.29082,-2.17625 6.33656,-2.78889 19.22661,-1.94831 4.20836,0.27443 4.97121,0.24943 5.82245,-0.19076 1.01649,-0.52565 1.97469,0.11408 1.97469,1.31838 0,0.57101 -2.38641,2.08298 -3.09752,1.9625 -0.49513,-0.0839 -2.02248,1.02358 -2.02248,1.46646 0,0.7557 8.55331,-3.70312 9.06635,-4.72627 0.84559,-1.68633 2.1478,-1.55214 2.27239,0.23416 0.0543,0.77831 0.8124,0.76097 1.30126,-0.0297 0.83752,-1.35469 1.51858,-1.81685 1.90288,-1.2913 0.2911,0.39811 0.93337,0.4844 3.15534,0.42394 9.41563,-0.25619 -8.91406,8.75803 -22.33822,10.98554 -5.26713,0.87399 -17.29775,1.66365 -17.79348,1.16791 z M 80.330582,302.95313 c 0.01563,-1.52684 3.55893,-3.20585 4.589855,-2.17493 0.843767,0.84377 0.09049,1.77765 -1.852531,2.2967 -0.719347,0.19216 -1.631903,0.47583 -2.027903,0.63038 -0.656989,0.2564 -0.719074,0.19057 -0.709421,-0.75215 z m 92.149428,-2.34219 c -3.08,-0.23391 -10.928,-0.7919 -17.44,-1.23999 -6.512,-0.4481 -12.668,-0.90001 -13.68,-1.00426 L 139.52,298.17715 v -1.43826 c 0,-0.79104 0.16086,-3.13255 0.35746,-5.20336 0.90263,-9.5075 -1.40536,-13.93554 -7.26353,-13.93554 -1.44805,0 -2.57509,-0.0934 -2.50453,-0.20756 0.26448,-0.42794 8.42895,-5.3671 11.97061,-7.24171 9.05616,-4.79346 24.93833,-10.63073 28.92429,-10.63073 0.87306,0 9.09954,5.67993 10.50717,7.25461 1.12513,1.25867 -1.48267,34.37343 -2.70142,34.3035 -0.40152,-0.023 -3.25004,-0.23326 -6.33004,-0.46716 z m -78.660962,-3.09981 c -0.350539,-0.42237 -0.18558,-0.56397 1.188866,-1.02048 0.877733,-0.29154 1.928026,-0.78941 2.333984,-1.10638 2.625145,-2.04971 6.160532,-2.46696 5.955072,-0.70282 -0.21937,1.88369 -8.268601,4.28683 -9.477922,2.82968 z m 199.589472,-6.96975 c -2.38018,-1.64044 -4.79859,-1.93468 -6.48656,-0.7892 -1.37192,0.93101 -1.89334,0.8097 -3.30391,-0.76867 l -1.02197,-1.14352 0.17723,1.15932 c 0.27708,1.81241 -0.23685,1.70869 -3.39975,-0.6861 -1.62223,-1.22827 -3.16141,-2.23322 -3.42041,-2.23322 -0.74911,0 -0.25269,0.47987 1.1514,1.11303 0.7125,0.32129 1.29546,0.78545 1.29546,1.03146 0,0.3793 -0.81603,2.24012 -1.14669,2.61484 -0.0579,0.0656 -1.0439,-0.13474 -2.19107,-0.44527 -1.95829,-0.53008 -2.21831,-0.53244 -4.25401,-0.0385 -3.53459,0.85764 -6.56237,0.45414 -7.2069,-0.96043 -0.18923,-0.41533 -0.46617,-0.75514 -0.61541,-0.75514 -0.14924,0 -0.0901,0.29239 0.13137,0.64976 0.56268,0.90787 0.0774,1.14125 -2.90948,1.39916 -1.3463,0.11625 -3.11772,0.29548 -3.93651,0.39829 l -1.48869,0.18694 0.45109,-2.15197 c 0.48835,-2.32974 0.14584,-4.53197 -0.75885,-4.87913 -0.24413,-0.0937 -0.56558,-0.49044 -0.71433,-0.88169 -0.17031,-0.44793 -0.64611,-0.78648 -1.28489,-0.91424 -0.61975,-0.12395 -1.07655,-0.44041 -1.17409,-0.81338 -0.16315,-0.62388 -1.41984,-1.00441 -3.54154,-1.0724 -1.26601,-0.0406 -1.23378,0.81677 -0.4,-10.64134 0.34579,-4.752 0.63125,-9.1275 0.63436,-9.72334 l 0.006,-1.08333 4.08,0.23186 c 6.67226,0.37917 9.10035,0.71466 12.76296,1.76346 11.43762,3.27519 18.82164,7.7293 27.15704,16.3814 7.23146,7.50621 9.59096,12.23249 4.91624,9.84763 -0.71404,-0.36428 -1.36969,-0.5909 -1.45699,-0.5036 -0.0873,0.0873 0.28239,0.38684 0.82153,0.66564 1.64125,0.84872 1.93288,2.42028 0.44912,2.42028 -0.28422,0 -0.35994,0.24762 -0.23183,0.75807 0.33083,1.31813 -1.06854,1.25623 -3.08956,-0.13668 z m -199.078445,0.64994 c -0.518159,-0.31269 -0.518591,-0.39757 -0.0075,-1.4694 l 0.542457,-1.13755 1.767471,0.2151 c 2.359313,0.28712 3.223054,2.04462 1.106234,2.2509 -0.34032,0.0332 -1.122764,0.15312 -1.738764,0.26656 -0.616,0.11344 -1.367467,0.0569 -1.669928,-0.12561 z m 203.867375,-7.5858 c -8.86786,-11.48729 -19.614,-19.36902 -30.86934,-22.64104 -2.56282,-0.74503 -2.22438,-0.77024 4.0319,-0.30037 3.08,0.23132 11.072,0.79391 17.76,1.2502 6.688,0.45628 13.30613,0.93222 14.70695,1.05764 l 2.54695,0.22804 0.73841,2.36014 c 2.58011,8.24663 1.7034,21.4182 -1.37418,20.64578 -0.46575,-0.1169 -0.93937,-0.0683 -1.05248,0.10793 -0.11311,0.17626 -1.04087,0.38819 -2.06168,0.47096 l -1.85604,0.1505 z m -80.70611,-37.92553 c -0.108,-1.628 -0.28745,-6.416 -0.39879,-10.64 l -0.20243,-7.68 1.07494,-0.99982 c 0.85536,-0.79558 1.45676,-1.04199 2.94401,-1.20621 9.87475,-1.0904 23.77762,-8.00777 34.1071,-16.96997 2.65804,-2.3062 2.58258,-2.35443 2.59142,1.656 0.0208,9.43751 0.77849,12.81713 3.38702,15.10746 1.15575,1.01476 1.19966,1.13144 1.31393,3.49119 0.2098,4.333 0.64401,18.43851 0.57043,18.53086 -0.0494,0.062 -41.82208,1.60951 -44.99512,1.66694 -0.10789,0.002 -0.28452,-1.32845 -0.39251,-2.95645 z m 107.94867,2.2969 c -4.54095,-0.21796 -10.11939,-0.85079 -10.804,-1.22563 -0.27599,-0.1511 0.55713,-1.32438 2.62914,-3.7026 4.76257,-5.4664 8.58835,-11.08229 12.20566,-17.91681 1.5633,-2.95369 1.88116,-3.36676 2.45149,-3.18574 6.4273,2.03995 10.79373,-7.44654 7.12049,-15.46995 l -0.81829,-1.7874 0.79369,-2.42438 c 2.99854,-9.15919 4.98052,-20.34114 4.98143,-28.10439 4.7e-4,-3.92776 -0.45386,-3.75973 5.47209,-2.02379 21.21238,6.21393 27.69867,14.08985 28.35005,34.42379 0.94236,29.41745 -16.41715,43.14317 -52.38175,41.4169 z m -17.01099,-2.38449 c -4.62352,-1.26924 -10.8463,-3.86512 -14.2012,-5.92413 -0.5347,-0.32816 -1.28029,-1.14377 -1.65685,-1.81247 -0.37657,-0.66869 -1.12709,-1.63875 -1.66782,-2.15568 -1.73268,-1.65642 -1.37504,-2.69939 2.17406,-6.34013 1.1581,-1.188 2.0375,-2.1594 1.95422,-2.15866 -0.0833,7.4e-4 -0.85982,0.36074 -1.72565,0.8 -1.98285,1.00596 -4.02577,1.04175 -4.02577,0.0705 0,-0.18682 1.6016,-2.99066 3.55912,-6.23076 3.27759,-5.42509 3.5364,-5.97033 3.27183,-6.89281 -0.28008,-0.97659 -0.31856,-0.92578 -1.53378,2.025 -1.57236,3.81797 -1.37051,3.64282 -3.4886,3.02707 -2.25469,-0.65545 -2.0119,0.20103 -2.27652,-8.03104 l -0.22728,-7.07069 2.34761,-0.049 c 1.29119,-0.0269 4.21962,-0.12418 6.50762,-0.21611 4.67427,-0.18782 21.44091,-0.75004 25.12,-0.84232 l 2.4,-0.0602 0.23081,4.77449 c 0.39607,8.19336 1.18011,10.84872 3.58575,12.14425 1.75477,0.945 -2.44222,8.66246 -9.95392,18.30341 -6.21422,7.97568 -6.00717,7.84341 -10.39363,6.63924 z m -161.54901,-9.64545 c -19.28057,-1.35538 -35.02335,-5.95399 -46.91868,-13.70535 -2.217829,-1.44521 -2.626486,-1.85079 -2.788459,-2.76749 -0.255819,-1.44784 -2.132868,-49.8777 -2.132868,-55.03028 v -1.32586 l 1.04,0.84394 c 8.835787,7.17009 20.967797,13.7889 31.759997,17.32716 l 5.12,1.67861 0.55265,16.91615 c 0.66027,20.21046 0.81869,22.24891 1.891,24.33261 2.40245,4.66841 10.21102,4.68284 12.63508,0.0233 1.0202,-1.96101 1.06147,-3.85634 0.44871,-20.6084 -0.33353,-9.11849 -0.54615,-16.63935 -0.47248,-16.71302 0.0737,-0.0737 1.61244,0.10327 3.41949,0.39319 5.38934,0.86465 8.7255,1.17133 14.96556,1.3757 l 5.92,0.19389 0.72806,-0.78979 0.72806,-0.78978 -6.96806,-0.20582 c -7.46372,-0.22045 -18.21802,-1.27906 -18.78841,-1.84945 -0.0699,-0.0699 -0.35436,-5.81498 -0.63203,-12.76675 -0.60449,-15.1341 -0.83218,-16.24937 -3.81683,-18.69507 l -1.40442,-1.15081 -0.21224,-8.07684 c -0.11673,-4.44227 -0.29876,-9.19285 -0.4045,-10.55685 -0.21765,-2.80735 0.54927,-3.42961 2.07054,-1.68 0.38258,0.44 0.93765,0.8 1.23349,0.8 0.45351,0 0.4252,-0.11995 -0.18047,-0.76466 l -0.71836,-0.76466 5.70258,-0.20005 c 3.13642,-0.11004 6.4746,-0.24711 7.41818,-0.30462 l 1.7156,-0.10456 -0.20374,1.80078 c -0.29094,2.57157 1.07752,5.9661 2.77875,6.8928 0.7827,0.42637 1.19666,0.89619 1.25978,1.42982 0.0725,0.61252 0.35086,0.85708 1.21402,1.06641 3.49296,0.84713 3.53592,0.86837 3.73124,1.84496 0.20301,1.01506 0.58567,1.12943 2.21521,0.66209 0.79234,-0.22724 1.22498,-0.13476 2.23789,0.47836 1.40041,0.84768 2.69566,1.00027 2.69566,0.31757 0,-0.97055 2.32437,-0.95329 4.26891,0.0317 0.84864,0.42987 0.89627,0.42055 0.71821,-0.14049 -0.30935,-0.97465 0.90331,-2.00545 2.35924,-2.00545 h 1.24144 l 0.1061,4.08 c 0.0976,3.75183 0.0502,4.16431 -0.58914,5.12816 -1.27739,1.92585 -1.96796,12.47209 -1.24096,18.95184 0.0691,0.616 0.22344,4.30344 0.34296,8.19431 l 0.21729,7.0743 -0.75202,0.20133 c -0.41362,0.11073 -1.13208,0.20329 -1.59658,0.20569 -0.4645,0.002 -1.1845,0.29026 -1.6,0.63968 l -0.75545,0.6353 2.29386,-0.19882 2.29387,-0.19883 0.17399,1.40352 c 1.42172,11.46868 0.81399,33.88093 -1.09311,40.31259 l -0.62538,2.10906 -2.80161,0.84522 c -8.38103,2.52847 -21.29659,3.87179 -30.80162,3.20361 z m 73.10885,-13.0186 c 0.52389,-1.74261 0.5332,-5.67901 0.049,-20.70767 -0.28602,-8.87738 -0.5942,-16.90856 -0.68484,-17.84708 -0.16154,-1.67277 -0.11628,-1.78627 2.2969,-5.76 8.48589,-13.97355 14.99947,-33.29665 16.00658,-47.48493 0.24563,-3.46055 -2.83964,-2.94871 22.66353,-3.75981 11.616,-0.36943 22.056,-0.70256 23.2,-0.74028 l 2.08,-0.0686 0.0961,5.91999 c 0.24452,15.05895 -2.69465,31.27153 -7.81913,43.13069 -2.21319,5.12181 -2.35375,5.32068 -3.81984,5.40435 -5.71068,0.32593 -10.75389,0.32244 -10.8568,-0.008 -0.0631,-0.20214 -0.28185,-5.22714 -0.48623,-11.16666 -0.4813,-13.98705 -0.93381,-15.59573 -4.65017,-16.53152 -2.79955,-0.70494 -2.63,-2.13681 -1.8911,15.97065 0.17108,4.19253 0.6306,17.44826 0.98174,28.32 l 0.2067,6.4 -2.04065,1.78748 c -10.50111,9.19832 -21.98449,15.19077 -33.3497,17.40312 -2.17994,0.42435 -2.18819,0.42325 -1.9821,-0.26224 z M 87.300917,206.8053 C 70.549583,187.79016 64.282419,167.98664 68.867729,148.55853 c 0.548374,-2.32348 0.805943,-2.93269 1.19561,-2.82794 2.096198,0.56353 2.948821,0.53908 3.11314,-0.0893 0.179994,-0.6883 0.934109,-1.11907 1.426419,-0.8148 0.167827,0.10372 0.486766,0.0378 0.708754,-0.14639 0.221988,-0.18423 1.454939,-0.49809 2.739892,-0.69745 l 2.336277,-0.36249 1.022632,0.99117 c 5.694486,5.51932 7.411247,13.43892 8.191581,37.78864 0.183309,5.72 0.476844,14.273 0.6523,19.00666 0.175456,4.73367 0.26562,8.66006 0.200364,8.72531 -0.06525,0.0653 -1.484457,-1.43174 -3.153781,-3.32666 z m 248.059093,-4.88719 c -2.21629,-1.56487 -5.12092,-2.52518 -12,-3.96736 -19.6262,-4.11456 -28.28988,-8.37784 -32.83362,-16.15696 -1.03292,-1.76842 -1.13187,-1.84661 -2.0459,-1.61673 -1.41385,0.3556 -9.76048,0.68248 -9.76048,0.38226 0,-0.14131 0.21917,-0.56984 0.48705,-0.95229 3.20524,-4.57611 8.53275,-17.95379 10.54435,-26.47744 0.45566,-1.93072 1.09572,-3.96338 1.42238,-4.51701 0.35418,-0.6003 0.52917,-1.34527 0.43352,-1.84562 -0.11136,-0.58254 -0.002,-0.8996 0.35616,-1.03722 0.79014,-0.30321 0.62481,-0.85926 -0.61186,-2.05789 -2.63039,-2.54947 -2.12233,-4.16888 2.86197,-9.12224 7.17802,-7.13348 17.02648,-10.23819 33.70817,-10.62646 l 7.12174,-0.16576 1.12569,2.43642 c 2.356,5.09923 6.09018,21.23192 6.76776,29.23849 0.14564,1.72094 0.35632,2.4575 0.8238,2.88 2.28191,2.06239 -2.63222,-24.52879 -5.794,-31.3523 l -1.29743,-2.8 h 1.57435 c 8.47953,0 21.20123,3.71454 30.49564,8.90426 3.19715,1.78519 2.94858,0.63249 3.42771,15.89573 0.22651,7.216 0.4256,13.336 0.44242,13.6 0.0249,0.39101 -0.56268,0.49711 -3.16942,0.57228 -1.76,0.0507 -8.024,0.27972 -13.92,0.50881 l -10.72,0.41653 -0.81751,-0.74881 c -1.03773,-0.95052 -1.26249,-0.94141 -1.26249,0.0512 0,0.78133 -0.0553,0.8 -2.37013,0.8 h -2.37014 l -0.22377,-3.12 c -0.45277,-6.3129 -1.47025,-9.12456 -3.7797,-10.44466 -5.20697,-2.97634 -10.88293,0.51485 -10.88293,6.69392 0,6.73614 2.59147,8.87961 14.14187,11.69712 l 5.5552,1.35509 -0.21437,3.70927 c -0.43982,7.61056 -1.84771,17.12728 -3.41283,23.06926 -1.27764,4.85056 -1.65186,6.07957 -1.84537,6.06041 -0.1088,-0.0108 -0.98983,-0.57881 -1.95783,-1.26229 z m -149.12,-19.66102 c 0,-1.70628 0.0811,-1.89124 1.49016,-3.39762 l 1.49016,-1.5931 -1.41016,0.63288 -1.41016,0.63288 -0.24976,-2.42826 -0.24976,-2.42827 2.34817,-3.8907 c 2.13919,-3.54446 2.31666,-3.96775 1.99425,-4.75654 -0.3398,-0.83132 -0.40627,-0.7415 -1.66719,2.2529 -2.41303,5.73037 -2.68113,4.89635 -3.11206,-9.68127 -0.11967,-4.048 -0.35148,-10.528 -0.51515,-14.4 -0.16366,-3.872 -0.30003,-7.99508 -0.30304,-9.1624 l -0.005,-2.1224 -2.48,-0.22563 c -9.63642,-0.87672 -20.20402,-4.43055 -25.28,-8.50153 -2.33362,-1.87158 -2.40637,-2.08287 -0.8,-2.32359 0.66,-0.0989 3.504,-0.55059 6.32,-1.00375 5.84039,-0.93986 15.86721,-1.96565 22.29233,-2.2806 l 4.37234,-0.21432 0.23124,1.85077 c 0.22878,1.83113 0.0352,6.71383 -0.3704,9.34346 l -0.20978,1.36 h 1.13945 c 1.35733,0 1.47351,-0.39343 2.31184,-7.82877 0.27712,-2.45783 0.53888,-4.50381 0.58171,-4.54663 0.2913,-0.29131 19.13593,2.65322 24.17221,3.77698 2.91065,0.64946 9.66498,2.78296 10.77236,3.40268 0.60333,0.33764 -3.29978,1.99386 -7.7903,3.30569 -3.15956,0.923 -3.06124,0.93635 4.42585,0.60094 3.60313,-0.16142 7.81611,-0.2974 9.36217,-0.30219 l 2.81102,-0.009 -0.19956,1.68 c -2.21224,18.62392 -10.41643,42.89883 -16.7707,49.62185 -0.26151,0.27668 -0.5265,-4.51903 -0.81899,-14.82186 -0.32214,-11.34749 -0.18242,-10.78285 -2.50136,-10.10871 -4.17064,1.21243 -4.4412,2.67195 -3.71262,20.02715 0.41099,9.79002 3.4934,8.35666 -19.61881,9.12301 l -6.64,0.22017 z M 127.68,179.85737 c -14.75139,-5.29294 -31.749925,-15.81383 -33.556764,-20.76925 -0.480577,-1.31803 -1.146406,-2.35187 -2.100017,-3.26072 l -1.396329,-1.33079 -0.198279,-5.96831 c -0.109054,-3.28257 -0.277476,-7.22831 -0.374273,-8.76831 -0.169791,-2.70133 -0.0212,-3.19886 0.730801,-2.44686 0.252983,0.25298 0.793639,0.25867 1.906338,0.02 0.854261,-0.1832 2.155453,-0.25232 2.891536,-0.15359 1.925959,0.25833 2.694764,-0.0281 4.547797,-1.6941 2.21725,-1.99349 2.77453,-1.86069 6.52095,1.55399 2.58512,2.35622 2.79992,2.49325 1.99492,1.27267 -1.07763,-1.63397 -1.5071,-4.42624 -0.72683,-4.72566 0.28355,-0.1088 2.98294,1.32959 6.59088,3.512 5.64929,3.41722 6.17301,3.66788 6.93651,3.32 0.79154,-0.36065 0.70217,-0.42773 -2.15069,-1.61455 -3.71355,-1.54488 -3.62027,-1.43711 -3.02265,-3.49193 0.8304,-2.85519 0.64619,-2.77026 6.4461,-2.97188 2.816,-0.0979 6.812,-0.26896 8.88,-0.38016 l 3.76,-0.20219 0.006,2.36112 c 0.003,1.29861 0.1462,6.07461 0.31723,10.61332 l 0.31096,8.2522 -1.07682,0.94547 c -2.64246,2.32011 -2.79937,3.5875 -2.3263,18.79012 0.22522,7.23773 0.19802,8.71724 -0.16,8.70372 -0.23724,-0.009 -2.37535,-0.71381 -4.75135,-1.56634 z M 88.480003,129.38431 c -13.204046,-1.11516 -15.033107,-1.75419 -16.022381,-5.59785 -3.1981,-12.42567 -3.899236,-25.206915 -1.928018,-35.146463 1.199147,-6.046504 1.146091,-5.92286 2.533422,-5.904 0.647337,0.0088 4.204632,0.0448 7.905099,0.08 l 6.728122,0.064 -0.203747,4.24 c -0.465945,9.696397 0.852905,13.374673 5.421021,15.119253 6.456868,2.4659 11.563559,-4.477979 9.818049,-13.350208 C 101.57456,83.008053 98.465845,80.358351 89.920003,77.969145 72.852761,73.197568 74.840029,74.116349 76.156276,71.605705 81.730999,60.972326 90.322305,53.768 102.00157,49.932873 l 3.89727,-1.279749 4.09058,1.275161 c 17.82446,5.556434 25.83887,10.964477 29.43214,19.860519 2.62201,6.491445 4.15447,20.451193 2.24507,20.451193 -3.42956,0 -4.26128,6.264415 -1.02736,7.73789 0.98943,0.450816 0.99082,0.741696 0.0212,4.467073 -2.21183,8.49846 -3.27121,9.96688 -8.70761,12.06968 -7.84022,3.0326 -15.8218,7.67595 -22.32399,12.98718 -2.16434,1.76791 -12.067849,2.64943 -21.148907,1.88249 z m -7.021175,-7.63213 c 3.935532,-2.33464 4.591941,-3.6343 2.823939,-5.59126 -1.54743,-1.71282 -3.104469,-1.79292 -4.672098,-0.24035 -0.577866,0.57232 -2.382666,1.68137 -4.010666,2.46457 -2.902845,1.3965 -4.305557,3.21486 -2.48,3.21486 0.264,0 0.48,0.12842 0.48,0.28538 0,0.35922 2.575189,0.9069 4.498825,0.95679 1.138611,0.0295 1.876135,-0.20973 3.36,-1.08999 z m 5.694448,-10.5369 c 1.638561,-1.51857 0.821645,-3.26495 -1.388593,-2.9685 -2.519829,0.33798 -3.04981,2.29874 -0.878144,3.24886 1.379213,0.60342 1.302943,0.61285 2.266737,-0.28036 z m 30.285544,-7.37402 c 0.81694,-0.8696 0.81893,-0.85871 -0.25927,-1.42012 -0.57339,-0.29856 -0.84414,-0.2995 -1.2,-0.004 -0.56542,0.46926 -0.60456,1.79118 -0.0596,2.0111 0.6671,0.26918 0.74176,0.24033 1.51882,-0.58681 z m 12.8125,-26.892503 c 1.73314,-0.884729 1.80839,-1.78034 0.33226,-3.954048 -2.24569,-3.306926 -5.4548,-2.343125 -5.02219,1.50833 0.34028,3.029469 1.92625,3.856521 4.68993,2.445718 z M 66.894834,125.26581 c -6.451447,-2.1668 -13.402816,-5.7781 -17.041623,-8.85328 L 48.986421,115.68 49.301456,99.058418 c 0.17327,-9.141868 0.356375,-16.662917 0.406901,-16.713443 0.05053,-0.05053 4.739715,6.57e-4 10.42042,0.11374 l 10.328554,0.205606 -0.151726,0.827838 c -0.08345,0.455311 -0.447911,2.195838 -0.809916,3.867838 -1.989334,9.188169 -1.523253,23.976803 1.091231,34.624533 0.601195,2.44842 1.093083,4.51553 1.093083,4.59357 0,0.2654 -0.478251,0.13425 -4.785169,-1.31229 z m 160.305176,-5.29103 c -9.73751,-4.89084 -18.63856,-8.46639 -23.42526,-9.40992 -4.92468,-0.97072 -11.61319,-2.49039 -11.8321,-2.68833 -0.8951,-0.80936 -0.60036,-1.88198 0.57788,-2.10302 5.27445,-0.9895 5.92974,-2.81347 6.12674,-17.053513 l 0.14719,-10.64 4.04277,0.04131 c 2.22353,0.02272 6.19284,0.130722 8.82069,0.24 l 4.77792,0.198688 0.24255,0.910439 c 0.78247,2.937099 6.936,2.915537 8.68677,-0.03044 0.62861,-1.057744 1.22429,-1.237539 2.74838,-0.829541 0.77771,0.208195 0.81076,2.351853 0.048,3.115594 -1.98585,1.988483 4.33469,5.301124 7.43843,3.898539 0.51086,-0.230861 0.56,0.0026 0.56,2.661171 0,2.808483 -0.0261,2.91428 -0.72,2.915433 -1.47717,0.0025 -2.8383,1.164627 -2.42539,2.070871 0.35998,0.790064 2.27921,1.625492 2.88051,1.253867 0.27584,-0.170481 0.0614,21.318592 -0.24311,24.366172 -0.10484,1.04914 -0.35158,1.72611 -0.70656,1.93857 -0.3,0.17955 -1.04945,0.62096 -1.66545,0.98091 l -1.12,0.65446 z M 147.484,108.88 c -1.70237,-4.40397 -2.14094,-14.367879 -1.65432,-37.584673 0.31889,-15.21413 -0.12501,-13.923115 3.91985,-11.400216 16.65265,10.386739 30.9579,26.238073 34.47967,38.206139 0.20372,0.692311 0.54891,1.96668 0.76708,2.83194 0.21818,0.86526 0.79437,2.02612 1.28042,2.5797 0.83621,0.95239 1.84489,3.83219 1.47265,4.20443 -0.095,0.0951 -2.26452,0.0175 -4.82105,-0.17225 -10.49659,-0.77924 -26.47699,0.0684 -32.52829,1.7254 -2.36465,0.64749 -2.52298,0.62629 -2.91601,-0.39047 z m 9.5194,-14.880004 c 3.88368,-5.268236 4.19258,-5.761342 3.70983,-5.922257 -0.21627,-0.07209 -0.39435,-0.299076 -0.39572,-0.504409 -0.002,-0.359213 -1.40713,-1.173333 -2.02453,-1.173333 -0.16468,0 -2.54798,0.720107 -5.2962,1.600238 l -4.99677,1.600239 -1.05803,1.568259 -1.05802,1.568258 1.64611,2.256107 c 1.54988,2.124219 1.73332,2.267549 3.13802,2.451839 0.82055,0.107653 1.70792,0.241877 1.97192,0.298276 0.264,0.0564 0.70356,0.119247 0.9768,0.139663 0.28745,0.02148 1.7146,-1.614826 3.38659,-3.88288 z m 24.18434,-13.187032 c -6.70761,-11.561736 -27.95012,-29.932966 -34.61127,-29.932966 -0.18505,0 -0.33638,-0.108 -0.33627,-0.24 1e-4,-0.132 1.21633,-0.242076 2.70271,-0.244614 3.86949,-0.0066 4.52807,-0.613623 5.95116,-5.485237 1.17355,-4.017362 -1.54938,-7.150148 -6.2147,-7.150148 h -2.15858 l 0.16822,-1.36 c 0.0925,-0.748 0.25615,-2.224 0.36361,-3.28 3.21167,-31.5596788 49.80373,-40.7568833 87.77666,-17.326982 l 2.66927,1.646982 -0.19276,11.04 c -0.10602,6.072 -0.28027,13.894057 -0.38722,17.382349 l -0.19446,6.342349 -6.60205,-0.183543 c -3.63113,-0.100949 -12.04071,-0.27187 -18.68796,-0.379824 l -12.08591,-0.196279 0.0247,-7.562526 c 0.0377,-11.541672 -1.59002,-14.350704 -7.93866,-13.700283 -5.82384,0.596655 -5.99146,1.35829 -6.49343,29.504725 l -0.38794,21.75303 -0.81629,0.88 c -1.07071,1.154272 -0.97047,1.213541 -2.54882,-1.507033 z M 70.400003,72.039017 C 54.199274,65.603334 48.527297,56.875261 48.539536,38.399999 48.550208,22.290736 51.743302,14.719076 61.600002,7.430224 77.575099,-4.3830714 115.17476,-2.1524544 136.85951,11.895028 l 2.96194,1.918756 -0.16414,13.013107 c -0.0903,7.157209 -0.24229,13.783776 -0.33782,14.725705 l -0.17368,1.712597 -14.7729,-0.198643 C 116.24781,42.957295 108.124,42.78477 106.32,42.683158 l -3.28,-0.184747 v -3.901975 c 0,-10.883765 -8.315407,-16.233132 -13.487226,-8.676437 -4.587851,6.703443 -0.931652,13.221593 9.335317,16.642694 1.953729,0.65101 3.507159,1.224309 3.452069,1.273997 -0.0551,0.04969 -1.10816,0.487423 -2.34016,0.972741 -12.032342,4.739872 -22.530707,14.35021 -25.420839,23.270566 -0.471639,1.455706 -0.409987,1.45631 -4.179158,-0.04098 z"
       id="path1" />
  </g>
</svg>
